<?xml version="1.0" encoding="utf-8"?>
<!-- Generator: Adobe Illustrator 16.0.0, SVG Export Plug-In . SVG Version: 6.00 Build 0)  -->
<!DOCTYPE svg PUBLIC "-//W3C//DTD SVG 1.1//EN" "http://www.w3.org/Graphics/SVG/1.1/DTD/svg11.dtd">
<svg version="1.1" id="Layer_1" xmlns="http://www.w3.org/2000/svg" xmlns:xlink="http://www.w3.org/1999/xlink" x="0px" y="0px"
	 width="200px" height="200px" viewBox="0 0 200 200" enable-background="new 0 0 200 200" xml:space="preserve">
<g id="Layer_1_1_">
	<rect fill="#028E46" width="200" height="200"/>
</g>
<g id="Layer_5">
</g>
<g id="Layer_4">
	<rect x="33.5" y="67.792" fill="#16BCBC" width="146.5" height="73.999"/>
	<rect x="19" y="53.625" fill="#3C153B" width="146.5" height="74"/>
</g>
<g id="Layer_6">
	<g>
		<g>
			<path fill="#EC6A5A" d="M6.437,186.152h2.704L9.08,189.01l2.461-1.459l1.367,2.37l-2.553,1.367l2.553,1.397l-1.367,2.399
				l-2.461-1.487l0.061,2.854H6.437l0.061-2.886l-2.461,1.488l-1.367-2.371l2.521-1.396L2.67,189.92l1.367-2.4l2.461,1.489
				L6.437,186.152z"/>
		</g>
	</g>
	<g>
		<g>
			<path fill="#EC6A5A" d="M119.77,186.152h2.703l-0.061,2.855l2.461-1.458l1.367,2.369l-2.553,1.367l2.553,1.397l-1.367,2.4
				l-2.461-1.488l0.061,2.855h-2.703l0.062-2.887l-2.461,1.488l-1.367-2.369l2.521-1.398l-2.521-1.367l1.367-2.4l2.461,1.489
				L119.77,186.152z"/>
		</g>
	</g>
	<g>
		<g>
			<path fill="#EC6A5A" d="M149.102,172.486h2.705l-0.061,2.855l2.461-1.458l1.367,2.369l-2.553,1.367l2.553,1.397l-1.367,2.4
				l-2.461-1.488l0.061,2.855h-2.705l0.062-2.887l-2.461,1.488l-1.367-2.369l2.521-1.398l-2.521-1.367l1.367-2.4l2.461,1.489
				L149.102,172.486z"/>
		</g>
	</g>
	<g>
		<g>
			<path fill="#EC6A5A" d="M35.437,169.486h2.704l-0.061,2.855l2.461-1.458l1.367,2.369l-2.553,1.367l2.553,1.397l-1.367,2.4
				l-2.461-1.488l0.061,2.855h-2.704l0.061-2.887l-2.461,1.488l-1.367-2.369l2.521-1.398l-2.521-1.367l1.367-2.4l2.461,1.489
				L35.437,169.486z"/>
		</g>
	</g>
	<g>
		<g>
			<path fill="#EC6A5A" d="M63.436,184.152h2.704l-0.061,2.855l2.461-1.458l1.367,2.369l-2.553,1.367l2.553,1.397l-1.367,2.4
				l-2.461-1.488l0.061,2.855h-2.704l0.061-2.887l-2.461,1.488l-1.367-2.369l2.521-1.398l-2.521-1.367l1.367-2.4l2.461,1.489
				L63.436,184.152z"/>
		</g>
	</g>
	<g>
		<g>
			<path fill="#EC6A5A" d="M92.38,170.82h2.704l-0.061,2.854l2.461-1.459l1.367,2.371l-2.553,1.367l2.553,1.397l-1.367,2.399
				l-2.461-1.489l0.061,2.856H92.38l0.061-2.886l-2.461,1.488l-1.367-2.371l2.521-1.396l-2.521-1.367l1.367-2.4l2.461,1.488
				L92.38,170.82z"/>
		</g>
	</g>
	<g>
		<path fill="#16BCBC" d="M193.917,16.717h-2.937l0.065-3.101l-2.672,1.583l-1.483-2.573l2.771-1.484l-2.771-1.518l1.483-2.605
			l2.672,1.616l-0.065-3.101h2.937l-0.065,3.133l2.672-1.616l1.483,2.573l-2.737,1.518l2.737,1.484l-1.483,2.606l-2.672-1.616
			L193.917,16.717z"/>
	</g>
	<g>
		<path fill="#16BCBC" d="M80.585,16.717h-2.937l0.066-3.101l-2.672,1.583l-1.484-2.573l2.771-1.484l-2.771-1.518l1.484-2.605
			l2.672,1.616l-0.066-3.101h2.937l-0.066,3.133l2.672-1.616l1.484,2.573l-2.738,1.518l2.738,1.484l-1.484,2.606l-2.672-1.616
			L80.585,16.717z"/>
	</g>
	<g>
		<path fill="#16BCBC" d="M54.917,28.051H51.98l0.066-3.101l-2.672,1.583L47.89,23.96l2.771-1.484l-2.771-1.518l1.484-2.605
			l2.672,1.616l-0.066-3.101h2.937l-0.066,3.133l2.672-1.616l1.484,2.573l-2.738,1.518l2.738,1.484l-1.484,2.606l-2.672-1.616
			L54.917,28.051z"/>
	</g>
	<g>
		<path fill="#3C153B" d="M27.887,69.525h-8.359l0.188-8.828l-7.607,4.508L7.883,57.88l7.889-4.227l-7.889-4.32l4.227-7.419
			l7.607,4.602l-0.188-8.828h8.359L27.7,46.61l7.607-4.602l4.227,7.326l-7.795,4.32l7.795,4.227L35.307,65.3L27.7,60.698
			L27.887,69.525z"/>
	</g>
	<g>
		<path fill="#16BCBC" d="M179.693,155.702h-8.357l0.188-8.828l-7.606,4.508l-4.228-7.325l7.89-4.227l-7.89-4.32l4.228-7.419
			l7.606,4.603l-0.188-8.828h8.357l-0.188,8.922l7.607-4.602l4.226,7.324l-7.795,4.32l7.795,4.227l-4.226,7.42l-7.607-4.603
			L179.693,155.702z"/>
	</g>
	<g>
		<path fill="#16BCBC" d="M164.917,33.383h-2.937l0.065-3.101l-2.672,1.583l-1.483-2.573l2.771-1.484l-2.771-1.518l1.483-2.605
			l2.672,1.616L161.98,22.2h2.937l-0.065,3.133l2.672-1.616l1.483,2.573l-2.737,1.518l2.737,1.484l-1.483,2.606l-2.672-1.616
			L164.917,33.383z"/>
	</g>
	<g>
		<path fill="#16BCBC" d="M136.917,18.717h-2.937l0.065-3.101l-2.672,1.583l-1.483-2.573l2.771-1.484l-2.771-1.518l1.483-2.605
			l2.672,1.616l-0.065-3.101h2.937l-0.065,3.133l2.672-1.616l1.483,2.573l-2.737,1.518l2.737,1.484l-1.483,2.606l-2.672-1.616
			L136.917,18.717z"/>
	</g>
	<g>
		<path fill="#16BCBC" d="M107.973,32.051h-2.938l0.066-3.101l-2.672,1.583l-1.484-2.573l2.771-1.484l-2.771-1.518l1.484-2.605
			l2.672,1.616l-0.066-3.101h2.938l-0.066,3.133l2.672-1.616l1.484,2.573l-2.738,1.518l2.738,1.484l-1.484,2.606l-2.672-1.616
			L107.973,32.051z"/>
	</g>
</g>
<g id="Layer_2" display="none">
	<text transform="matrix(1 0 0 1 11.0557 74.8984)" display="inline" font-family="'Montserrat-Bold'" font-size="30.3849">Discover</text>
	<text transform="matrix(1 0 0 1 11.0557 111.3613)" display="inline" font-family="'Montserrat-Bold'" font-size="30.3849">More</text>
</g>
<g id="Layer_2_copy">
	<g enable-background="new    ">
		<path fill="#EC6A5A" d="M43.875,63.395c1.711,0.892,3.043,2.143,3.996,3.753c0.952,1.61,1.428,3.459,1.428,5.545
			c0,2.087-0.481,3.94-1.443,5.561c-0.962,1.621-2.32,2.876-4.072,3.768c-1.752,0.892-3.763,1.337-6.031,1.337h-8.963v-21.3h9.176
			C40.193,62.058,42.163,62.503,43.875,63.395z M40.973,78.101c0.831-0.506,1.479-1.226,1.945-2.157
			c0.466-0.932,0.699-1.995,0.699-3.19c0-1.215-0.249-2.289-0.745-3.221c-0.497-0.932-1.18-1.656-2.051-2.173
			c-0.871-0.517-1.864-0.774-2.978-0.774h-3.495V78.86h3.768C39.19,78.86,40.143,78.607,40.973,78.101z"/>
		<path fill="#EC6A5A" d="M56.758,60.158c0.537,0.537,0.805,1.23,0.805,2.082c0,0.83-0.269,1.519-0.805,2.065
			c-0.537,0.547-1.221,0.821-2.051,0.821s-1.514-0.274-2.051-0.821c-0.537-0.547-0.805-1.235-0.805-2.065
			c0-0.852,0.268-1.545,0.805-2.082c0.537-0.536,1.22-0.805,2.051-0.805S56.221,59.622,56.758,60.158z M52.063,66.919h5.378v16.438
			h-5.378V66.919z"/>
		<path fill="#EC6A5A" d="M67.316,70.443c-0.466,0-0.841,0.087-1.125,0.259s-0.425,0.431-0.425,0.774
			c0,0.365,0.223,0.659,0.668,0.882c0.445,0.223,1.155,0.466,2.127,0.729c1.175,0.345,2.152,0.684,2.932,1.019
			c0.78,0.334,1.453,0.841,2.021,1.519c0.567,0.68,0.851,1.565,0.851,2.659c0,1.661-0.644,2.963-1.93,3.904
			c-1.287,0.942-2.962,1.413-5.029,1.413c-1.397,0-2.734-0.197-4.011-0.593c-1.276-0.395-2.411-0.977-3.403-1.747l1.701-3.494
			c0.932,0.648,1.909,1.149,2.932,1.504s1.99,0.532,2.902,0.532c0.527,0,0.947-0.086,1.261-0.259
			c0.313-0.172,0.471-0.42,0.471-0.744c0-0.405-0.228-0.719-0.684-0.942c-0.456-0.223-1.17-0.466-2.142-0.729
			c-1.155-0.345-2.107-0.684-2.856-1.019c-0.75-0.334-1.403-0.835-1.96-1.504c-0.558-0.668-0.835-1.539-0.835-2.613
			c0-1.66,0.627-2.962,1.884-3.904c1.256-0.941,2.876-1.413,4.861-1.413c1.195,0,2.375,0.163,3.54,0.486
			c1.165,0.324,2.264,0.801,3.297,1.429l-1.823,3.524C70.416,71.001,68.673,70.443,67.316,70.443z"/>
		<path fill="#EC6A5A" d="M84.666,71.203c-0.972,0-1.762,0.37-2.37,1.109c-0.607,0.739-0.912,1.697-0.912,2.871
			c0,1.195,0.304,2.157,0.912,2.887c0.608,0.729,1.398,1.094,2.37,1.094c1.499,0,2.572-0.617,3.221-1.854l3.98,2.279
			c-0.648,1.256-1.621,2.229-2.917,2.917s-2.816,1.033-4.558,1.033c-1.682,0-3.16-0.345-4.436-1.033
			c-1.276-0.688-2.264-1.661-2.963-2.917c-0.699-1.256-1.048-2.715-1.048-4.376c0-1.681,0.354-3.164,1.063-4.451
			c0.709-1.286,1.707-2.278,2.993-2.978c1.286-0.699,2.77-1.048,4.451-1.048c1.641,0,3.1,0.339,4.375,1.018
			c1.276,0.679,2.269,1.636,2.978,2.871l-3.92,2.279C87.117,71.771,86.043,71.203,84.666,71.203z"/>
		<path fill="#EC6A5A" d="M106.239,67.785c1.356,0.699,2.411,1.682,3.16,2.947c0.749,1.267,1.124,2.729,1.124,4.391
			c0,1.682-0.375,3.155-1.124,4.421c-0.749,1.267-1.804,2.249-3.16,2.947c-1.357,0.699-2.927,1.049-4.71,1.049
			c-1.782,0-3.353-0.35-4.709-1.049c-1.357-0.698-2.405-1.681-3.145-2.947c-0.74-1.266-1.109-2.739-1.109-4.421
			c0-1.661,0.37-3.124,1.109-4.391c0.739-1.266,1.788-2.248,3.145-2.947s2.927-1.048,4.709-1.048
			C103.312,66.737,104.882,67.086,106.239,67.785z M98.978,72.236c-0.649,0.75-0.973,1.732-0.973,2.947
			c0,1.236,0.324,2.229,0.973,2.978c0.648,0.75,1.499,1.125,2.552,1.125c1.074,0,1.935-0.375,2.583-1.125
			c0.647-0.749,0.973-1.741,0.973-2.978c0-1.215-0.329-2.197-0.987-2.947c-0.658-0.749-1.516-1.124-2.568-1.124
			C100.476,71.112,99.625,71.487,98.978,72.236z"/>
		<path fill="#EC6A5A" d="M110.554,66.919h5.561l3.433,11.425l3.465-11.425h5.408l-6.168,16.438h-5.561L110.554,66.919z"/>
		<path fill="#EC6A5A" d="M143.126,69.106c1.438,1.58,2.157,3.748,2.157,6.503c0,0.425-0.01,0.75-0.03,0.973h-11.425
			c0.264,0.932,0.719,1.646,1.367,2.142c0.648,0.497,1.438,0.744,2.37,0.744c0.709,0,1.393-0.141,2.051-0.425
			c0.658-0.283,1.262-0.699,1.809-1.246l2.825,2.826c-0.851,0.952-1.879,1.676-3.084,2.172c-1.205,0.497-2.567,0.745-4.087,0.745
			c-1.762,0-3.302-0.345-4.618-1.033c-1.317-0.688-2.324-1.661-3.023-2.917c-0.698-1.256-1.048-2.715-1.048-4.376
			c0-1.681,0.354-3.164,1.063-4.451c0.709-1.286,1.711-2.278,3.008-2.978c1.296-0.699,2.796-1.048,4.497-1.048
			C139.632,66.737,141.688,67.527,143.126,69.106z M140.026,73.695c0-0.952-0.278-1.717-0.835-2.294
			c-0.558-0.578-1.292-0.866-2.203-0.866c-0.851,0-1.564,0.284-2.143,0.851c-0.577,0.567-0.957,1.337-1.139,2.31H140.026z"/>
		<path fill="#EC6A5A" d="M155.66,67.466c0.901-0.506,1.93-0.76,3.084-0.76v4.953c-0.183-0.02-0.456-0.03-0.82-0.03
			c-1.276,0-2.31,0.299-3.1,0.896s-1.245,1.413-1.367,2.445v8.387h-5.408V66.919h5.408v2.735
			C154.024,68.702,154.759,67.973,155.66,67.466z"/>
	</g>
	<g enable-background="new    ">
		<path fill="#EC6A5A" d="M28.789,98.521h6.046l6.168,12.458l6.138-12.458h6.047v21.3h-4.922l-0.03-13.491l-5.439,11.364h-3.585
			l-5.469-11.364v13.491h-4.953V98.521z"/>
		<path fill="#EC6A5A" d="M69.656,104.248c1.357,0.699,2.411,1.682,3.16,2.947c0.749,1.267,1.124,2.729,1.124,4.391
			c0,1.682-0.375,3.155-1.124,4.421c-0.75,1.267-1.803,2.249-3.16,2.947c-1.357,0.699-2.927,1.049-4.709,1.049
			c-1.783,0-3.353-0.35-4.71-1.049c-1.357-0.698-2.405-1.681-3.145-2.947c-0.74-1.266-1.109-2.739-1.109-4.421
			c0-1.661,0.37-3.124,1.109-4.391c0.739-1.266,1.788-2.248,3.145-2.947s2.927-1.048,4.71-1.048
			C66.729,103.2,68.299,103.549,69.656,104.248z M62.395,108.699c-0.649,0.75-0.973,1.732-0.973,2.947
			c0,1.236,0.324,2.229,0.973,2.978c0.648,0.75,1.499,1.125,2.552,1.125c1.073,0,1.934-0.375,2.583-1.125
			c0.648-0.749,0.973-1.741,0.973-2.978c0-1.215-0.33-2.197-0.988-2.947c-0.658-0.749-1.515-1.124-2.567-1.124
			C63.893,107.575,63.042,107.95,62.395,108.699z"/>
		<path fill="#EC6A5A" d="M84.317,103.929c0.901-0.506,1.929-0.76,3.084-0.76v4.953c-0.182-0.02-0.456-0.03-0.82-0.03
			c-1.276,0-2.31,0.299-3.1,0.896s-1.246,1.413-1.367,2.445v8.387h-5.408v-16.438h5.408v2.735
			C82.681,105.165,83.415,104.436,84.317,103.929z"/>
		<path fill="#EC6A5A" d="M103.17,105.569c1.438,1.58,2.157,3.748,2.157,6.503c0,0.425-0.011,0.75-0.03,0.973H93.872
			c0.263,0.932,0.719,1.646,1.368,2.142c0.648,0.497,1.438,0.744,2.37,0.744c0.709,0,1.393-0.141,2.051-0.425
			c0.658-0.283,1.261-0.699,1.808-1.246l2.826,2.826c-0.852,0.952-1.88,1.676-3.085,2.172c-1.205,0.497-2.567,0.745-4.086,0.745
			c-1.762,0-3.302-0.345-4.619-1.033c-1.317-0.688-2.324-1.661-3.023-2.917c-0.699-1.256-1.048-2.715-1.048-4.376
			c0-1.681,0.354-3.164,1.063-4.451c0.709-1.286,1.712-2.278,3.008-2.978c1.296-0.699,2.795-1.048,4.497-1.048
			C99.676,103.2,101.731,103.99,103.17,105.569z M100.071,110.158c0-0.952-0.279-1.717-0.835-2.294
			c-0.558-0.578-1.292-0.866-2.203-0.866c-0.851,0-1.565,0.284-2.142,0.851c-0.577,0.567-0.957,1.337-1.14,2.31H100.071z"/>
	</g>
</g>
</svg>
