<?xml version="1.0" encoding="utf-8"?>
<!-- Generator: Adobe Illustrator 16.0.0, SVG Export Plug-In . SVG Version: 6.00 Build 0)  -->
<!DOCTYPE svg PUBLIC "-//W3C//DTD SVG 1.1//EN" "http://www.w3.org/Graphics/SVG/1.1/DTD/svg11.dtd">
<svg version="1.1" xmlns="http://www.w3.org/2000/svg" xmlns:xlink="http://www.w3.org/1999/xlink" x="0px" y="0px" width="200px"
	 height="200px" viewBox="0 0 200 200" enable-background="new 0 0 200 200" xml:space="preserve">
<g id="Layer_1">
	<rect fill="#008E46" width="200" height="200"/>
	<rect x="59.89" y="67.415" fill="#16BBBB" width="100.883" height="73.999"/>
	<rect x="23.816" y="55.036" fill="#3C153B" width="93.061" height="74"/>
	<g>
		<g>
			<path fill="#EC6A5A" d="M8.322,159.731h3.34l-0.075,3.528l3.04-1.802l1.688,2.927l-3.153,1.689l3.153,1.726l-1.688,2.965
				l-3.04-1.838l0.075,3.526h-3.34l0.075-3.564l-3.04,1.84L3.669,167.8l3.114-1.726l-3.114-1.689l1.688-2.965l3.04,1.84
				L8.322,159.731z"/>
		</g>
	</g>
	<g>
		<g>
			<path fill="#EC6A5A" d="M148.301,159.73h3.338l-0.074,3.528l3.039-1.801l1.688,2.926l-3.152,1.688l3.152,1.728l-1.688,2.965
				l-3.039-1.838l0.074,3.526h-3.338l0.074-3.565l-3.039,1.84l-1.688-2.928l3.114-1.728l-3.114-1.688l1.688-2.965l3.039,1.84
				L148.301,159.73z"/>
		</g>
	</g>
	<g>
		<g>
			<path fill="#EC6A5A" d="M184.528,142.852h3.341l-0.074,3.528l3.039-1.801l1.689,2.926l-3.153,1.688l3.153,1.728l-1.689,2.965
				l-3.039-1.839l0.074,3.527h-3.341l0.075-3.565l-3.04,1.84l-1.688-2.928l3.114-1.728l-3.114-1.688l1.688-2.965l3.04,1.84
				L184.528,142.852z"/>
		</g>
	</g>
	<g>
		<g>
			<path fill="#EC6A5A" d="M44.14,139.146h3.34l-0.075,3.527l3.04-1.801l1.688,2.927l-3.153,1.688l3.153,1.728l-1.688,2.965
				l-3.04-1.839l0.075,3.527h-3.34l0.075-3.565l-3.04,1.839l-1.689-2.927l3.114-1.728l-3.114-1.688l1.689-2.965l3.04,1.839
				L44.14,139.146z"/>
		</g>
	</g>
	<g>
		<g>
			<path fill="#EC6A5A" d="M78.723,157.261h3.34l-0.075,3.527l3.04-1.801l1.688,2.927l-3.153,1.688l3.153,1.727l-1.688,2.965
				l-3.04-1.838l0.075,3.526h-3.34l0.075-3.564l-3.04,1.839l-1.688-2.928l3.114-1.727l-3.114-1.688l1.688-2.965l3.04,1.839
				L78.723,157.261z"/>
		</g>
	</g>
	<g>
		<g>
			<path fill="#EC6A5A" d="M114.472,140.794h3.34l-0.074,3.526l3.039-1.802l1.688,2.929l-3.152,1.688l3.152,1.727l-1.688,2.964
				l-3.039-1.839l0.074,3.528h-3.34l0.075-3.564l-3.04,1.838l-1.688-2.927l3.114-1.727l-3.114-1.688l1.688-2.965l3.04,1.838
				L114.472,140.794z"/>
		</g>
	</g>
	<g>
		<g>
			<path fill="#EC6A5A" d="M37.886,78.898h3.454l-0.077,3.649l3.144-1.863l1.747,3.026l-3.261,1.747l3.261,1.787l-1.747,3.066
				l-3.144-1.901l0.077,3.648h-3.454l0.077-3.688l-3.144,1.903l-1.747-3.027l3.221-1.787l-3.221-1.747l1.747-3.066l3.144,1.903
				L37.886,78.898z"/>
		</g>
	</g>
	<g>
		<g>
			<path fill="#EC6A5A" d="M63.803,103.045h3.455l-0.077,3.649l3.144-1.862l1.747,3.025l-3.261,1.747l3.261,1.787l-1.747,3.066
				l-3.144-1.902l0.077,3.648h-3.455l0.078-3.688l-3.144,1.902l-1.747-3.027l3.221-1.787l-3.221-1.747l1.747-3.065l3.144,1.902
				L63.803,103.045z"/>
		</g>
	</g>
	<g>
		<g>
			<path fill="#EC6A5A" d="M99.273,98.213h3.453l-0.078,3.648l3.145-1.864l1.747,3.029l-3.262,1.747l3.262,1.785l-1.747,3.065
				l-3.145-1.901l0.078,3.648h-3.453l0.077-3.687l-3.144,1.901l-1.747-3.027l3.221-1.785l-3.221-1.747l1.747-3.066l3.144,1.901
				L99.273,98.213z"/>
		</g>
	</g>
	<g>
		<path fill="#16BBBB" d="M183.242,27.563h-3.422l0.077-3.612l-3.113,1.844l-1.729-2.998l3.229-1.729l-3.229-1.768l1.729-3.036
			l3.113,1.883l-0.077-3.612h3.422l-0.078,3.651l3.113-1.883l1.729,2.998l-3.19,1.768l3.19,1.729l-1.729,3.036l-3.113-1.883
			L183.242,27.563z"/>
	</g>
	<g>
		<path fill="#16BBBB" d="M51.197,27.563h-3.421l0.078-3.612l-3.113,1.844l-1.729-2.998l3.228-1.729L43.01,19.3l1.729-3.036
			l3.113,1.883l-0.078-3.612h3.421l-0.077,3.651l3.113-1.883l1.729,2.998l-3.19,1.768l3.19,1.729l-1.729,3.036l-3.113-1.883
			L51.197,27.563z"/>
	</g>
	<g>
		<path fill="#16BBBB" d="M21.291,40.769h-3.421l0.078-3.613L14.833,39l-1.729-2.998l3.228-1.729l-3.228-1.768l1.729-3.036
			l3.113,1.883l-0.078-3.612h3.421l-0.077,3.65l3.113-1.883l1.729,2.998l-3.19,1.768l3.19,1.729l-1.729,3.036l-3.113-1.883
			L21.291,40.769z"/>
	</g>
	<g>
		<path fill="#3C153B" d="M32.703,70.936h-8.359l0.188-8.828l-7.607,4.508l-4.227-7.325l7.889-4.227l-7.889-4.32l4.227-7.419
			l7.607,4.602l-0.188-8.828h8.359l-0.188,8.922l7.607-4.602l4.227,7.326l-7.795,4.32l7.795,4.227l-4.227,7.419l-7.607-4.602
			L32.703,70.936z"/>
	</g>
	<g>
		<path fill="#16BBBB" d="M160.468,155.325h-8.358l0.188-8.828l-7.607,4.508l-4.227-7.325l7.889-4.227l-7.889-4.32l4.227-7.419
			l7.607,4.602l-0.188-8.828h8.358l-0.188,8.922l7.607-4.602l4.226,7.325l-7.795,4.32l7.795,4.227l-4.226,7.419l-7.607-4.602
			L160.468,155.325z"/>
	</g>
	<g>
		<path fill="#16BBBB" d="M149.453,46.981h-3.421l0.077-3.612l-3.113,1.844l-1.729-2.998l3.229-1.729l-3.229-1.768l1.729-3.036
			l3.113,1.883l-0.077-3.612h3.421l-0.077,3.65l3.113-1.883l1.729,2.998l-3.19,1.768l3.19,1.729l-1.729,3.036l-3.113-1.883
			L149.453,46.981z"/>
	</g>
	<g>
		<path fill="#16BBBB" d="M116.83,29.894h-3.421l0.077-3.613l-3.113,1.844l-1.729-2.998l3.228-1.729l-3.228-1.768l1.729-3.036
			l3.113,1.883l-0.077-3.613h3.421l-0.077,3.651l3.113-1.883l1.729,2.998l-3.19,1.768l3.19,1.729l-1.729,3.037l-3.113-1.883
			L116.83,29.894z"/>
	</g>
	<g>
		<path fill="#16BBBB" d="M83.105,45.429h-3.421l0.078-3.613l-3.113,1.844l-1.729-2.998l3.228-1.729l-3.228-1.768l1.729-3.036
			l3.113,1.883L79.684,32.4h3.421l-0.077,3.651l3.113-1.883l1.729,2.998l-3.19,1.768l3.19,1.729L86.141,43.7l-3.113-1.883
			L83.105,45.429z"/>
	</g>
	<g>
		<path fill="#16BBBB" d="M99.702,71.689h-4.102l0.093-4.331l-3.731,2.211l-2.073-3.593l3.869-2.073l-3.869-2.12l2.073-3.639
			l3.731,2.257l-0.093-4.331h4.102l-0.093,4.376l3.731-2.257l2.073,3.593l-3.824,2.12l3.824,2.073l-2.073,3.64l-3.731-2.257
			L99.702,71.689z"/>
	</g>
	<g>
		<path fill="#16BBBB" d="M63.853,87.519h-4.102l0.093-4.331l-3.731,2.211l-2.073-3.593l3.87-2.073l-3.87-2.12l2.073-3.639
			l3.731,2.257l-0.093-4.33h4.102l-0.093,4.376l3.732-2.257l2.073,3.593l-3.824,2.12l3.824,2.073l-2.073,3.64l-3.732-2.257
			L63.853,87.519z"/>
	</g>
	<g>
		<path fill="#3C153B" d="M120.726,92.729h-4.102l0.093-4.331l-3.731,2.211l-2.073-3.593l3.869-2.073l-3.869-2.119l2.073-3.639
			l3.731,2.257l-0.093-4.331h4.102l-0.093,4.376l3.731-2.257l2.073,3.594l-3.824,2.119l3.824,2.073l-2.073,3.64l-3.731-2.257
			L120.726,92.729z"/>
	</g>
	<g>
		<path fill="#3C153B" d="M138.398,114.014h-4.102l0.093-4.33l-3.731,2.211l-2.073-3.594l3.869-2.072l-3.869-2.119l2.073-3.64
			l3.731,2.257l-0.093-4.33h4.102l-0.093,4.376l3.731-2.257l2.073,3.594l-3.824,2.119l3.824,2.072l-2.073,3.641l-3.731-2.258
			L138.398,114.014z"/>
	</g>
</g>
<g id="Layer_2">
</g>
</svg>
