<?xml version="1.0" encoding="utf-8"?>
<!-- Generator: Adobe Illustrator 16.0.0, SVG Export Plug-In . SVG Version: 6.00 Build 0)  -->
<!DOCTYPE svg PUBLIC "-//W3C//DTD SVG 1.1//EN" "http://www.w3.org/Graphics/SVG/1.1/DTD/svg11.dtd">
<svg version="1.1" xmlns="http://www.w3.org/2000/svg" xmlns:xlink="http://www.w3.org/1999/xlink" x="0px" y="0px" width="200px"
	 height="200px" viewBox="0 0 200 200" enable-background="new 0 0 200 200" xml:space="preserve">
<g id="Layer_1">
	<rect fill="#FED800" width="200" height="201.295"/>
</g>
<g id="Layer_5">
	<g id="Layer_4">
		<circle fill="#9F84BD" cx="96.701" cy="102" r="56.268"/>
		<circle fill="#F99B1C" cx="102" cy="96.569" r="56.268"/>
	</g>
	<polygon display="none" fill="#9F84BD" points="-68.667,125.03 39.127,108.398 27.781,151.107 57.009,149.568 29.139,180.122 
		78.978,181.108 21.746,230.065 	"/>
	<polygon fill="#F99B1C" points="-40.5,136.076 26,108 9,159 41.61,159 20,186 58.5,183 9,227 	"/>
	<polygon fill="#9F84BD" points="232.5,0 185.5,75.817 173.823,30.55 148.196,40.501 156.939,12.688 103,26.464 127.599,-47.5 	"/>
	<circle opacity="0.4" fill="#9F84BD" cx="18.305" cy="83.5" r="9.305"/>
	<circle opacity="0.4" fill="#9F84BD" cx="178" cy="179.82" r="10.25"/>
	<circle opacity="0.4" fill="#9F84BD" cx="42.981" cy="22.659" r="13"/>
	<circle opacity="0.4" fill="#9F84BD" cx="103" cy="178.16" r="8.59"/>
	<circle opacity="0.4" fill="#9F84BD" cx="175.75" cy="93.25" r="9.75"/>
</g>
<g id="Layer_3">
</g>
<g id="Layer_2">
	<g>
		<path fill="#FFFFFF" d="M66.897,55.895v22.436c0,2.329-0.552,4.36-1.655,6.092c-1.104,1.731-2.651,3.064-4.644,4
			c-1.993,0.935-4.292,1.402-6.896,1.402c-2.023,0-3.947-0.292-5.77-0.874c-1.824-0.583-3.487-1.379-4.988-2.391l2.621-4.965
			c2.329,1.655,4.889,2.483,7.678,2.483c2.023,0,3.632-0.499,4.827-1.494c1.195-0.997,1.793-2.337,1.793-4.023v-2.805
			c-0.827,1.166-1.87,2.054-3.126,2.667c-1.257,0.614-2.698,0.92-4.322,0.92c-2.115,0-3.993-0.498-5.632-1.495
			c-1.64-0.996-2.912-2.398-3.816-4.207c-0.904-1.808-1.356-3.892-1.356-6.253c0-2.329,0.452-4.375,1.356-6.138
			c0.904-1.762,2.176-3.133,3.816-4.115c1.64-0.98,3.517-1.471,5.632-1.471c1.593,0,3.019,0.314,4.275,0.942
			c1.257,0.628,2.314,1.51,3.172,2.644v-3.356H66.897z M58.254,72.193c1.072-1.18,1.609-2.72,1.609-4.621
			c0-1.9-0.537-3.448-1.609-4.644c-1.073-1.195-2.468-1.793-4.184-1.793c-1.717,0-3.111,0.598-4.184,1.793
			c-1.073,1.195-1.625,2.744-1.655,4.644c0.03,1.901,0.575,3.441,1.632,4.621c1.058,1.18,2.459,1.77,4.207,1.77
			C55.786,73.963,57.181,73.373,58.254,72.193z"/>
		<path fill="#FFFFFF" d="M91.471,57.228c2.007,1.042,3.563,2.514,4.667,4.414c1.104,1.901,1.655,4.108,1.655,6.621
			c0,2.483-0.552,4.683-1.655,6.598c-1.104,1.916-2.659,3.402-4.667,4.459c-2.008,1.058-4.314,1.586-6.919,1.586
			c-2.636,0-4.958-0.529-6.965-1.586c-2.008-1.057-3.563-2.543-4.667-4.459c-1.104-1.915-1.655-4.115-1.655-6.598
			c0-2.513,0.552-4.72,1.655-6.621c1.104-1.9,2.659-3.371,4.667-4.414c2.007-1.042,4.329-1.563,6.965-1.563
			C87.156,55.665,89.463,56.186,91.471,57.228z M80.069,63.435c-1.149,1.257-1.724,2.896-1.724,4.919s0.575,3.663,1.724,4.919
			s2.644,1.885,4.482,1.885c1.808,0,3.288-0.628,4.437-1.885s1.724-2.896,1.724-4.919s-0.575-3.663-1.724-4.919
			c-1.149-1.256-2.629-1.885-4.437-1.885C82.712,61.549,81.218,62.178,80.069,63.435z"/>
		<path fill="#FFFFFF" d="M120.574,57.228c2.006,1.042,3.562,2.514,4.666,4.414c1.104,1.901,1.654,4.108,1.654,6.621
			c0,2.483-0.551,4.683-1.654,6.598c-1.104,1.916-2.66,3.402-4.666,4.459c-2.008,1.058-4.316,1.586-6.92,1.586
			c-2.637,0-4.959-0.529-6.966-1.586c-2.008-1.057-3.562-2.543-4.666-4.459c-1.104-1.915-1.656-4.115-1.656-6.598
			c0-2.513,0.552-4.72,1.656-6.621c1.104-1.9,2.658-3.371,4.666-4.414c2.007-1.042,4.329-1.563,6.966-1.563
			C116.258,55.665,118.566,56.186,120.574,57.228z M109.172,63.435c-1.15,1.257-1.725,2.896-1.725,4.919s0.574,3.663,1.725,4.919
			c1.148,1.257,2.643,1.885,4.482,1.885c1.809,0,3.287-0.628,4.436-1.885c1.15-1.257,1.725-2.896,1.725-4.919
			s-0.574-3.663-1.725-4.919c-1.148-1.256-2.627-1.885-4.436-1.885C111.814,61.549,110.32,62.178,109.172,63.435z"/>
		<path fill="#FFFFFF" d="M155.998,46.515v34.114h-7.034v-3.632c-0.89,1.288-1.993,2.261-3.311,2.92
			c-1.318,0.659-2.82,0.988-4.506,0.988c-2.329,0-4.375-0.529-6.138-1.586c-1.763-1.057-3.126-2.551-4.092-4.482
			c-0.965-1.931-1.448-4.153-1.448-6.667c0-2.483,0.475-4.674,1.426-6.575c0.949-1.9,2.299-3.371,4.046-4.414
			c1.747-1.042,3.754-1.563,6.022-1.563c3.494,0,6.161,1.303,8,3.908V46.515H155.998z M147.239,73.296
			c1.149-1.271,1.725-2.919,1.725-4.942s-0.575-3.67-1.725-4.942c-1.149-1.271-2.628-1.908-4.437-1.908
			c-1.839,0-3.333,0.637-4.482,1.908c-1.149,1.272-1.74,2.919-1.771,4.942c0.03,2.023,0.621,3.671,1.771,4.942
			c1.149,1.272,2.644,1.908,4.482,1.908C144.611,75.204,146.09,74.568,147.239,73.296z"/>
		<path fill="#FFFFFF" d="M39.221,111.111l7.31-0.046l5.839,18.022l5.793-18.022h7.034l-9.333,24.735H48.6L39.221,111.111z"/>
		<path fill="#FFFFFF" d="M74.599,101.182c0.72,0.735,1.081,1.686,1.081,2.85c0,1.165-0.36,2.115-1.081,2.851
			s-1.648,1.104-2.781,1.104c-1.104,0-2.016-0.375-2.736-1.126s-1.08-1.693-1.08-2.828c0-1.164,0.36-2.114,1.08-2.85
			c0.72-0.736,1.632-1.104,2.736-1.104C72.951,100.078,73.878,100.445,74.599,101.182z M68.323,111.065h7.08v24.735h-7.08V111.065z"
			/>
		<path fill="#FFFFFF" d="M103.426,112.422c1.762,1.058,3.126,2.552,4.092,4.482c0.965,1.932,1.447,4.154,1.447,6.667
			c0,2.482-0.475,4.666-1.424,6.552c-0.951,1.885-2.292,3.349-4.023,4.391c-1.732,1.042-3.748,1.562-6.046,1.562
			c-1.717,0-3.241-0.328-4.574-0.988c-1.333-0.658-2.46-1.616-3.379-2.873v3.586h-7.08v-34.114h7.08v13.012
			c0.889-1.257,2-2.215,3.333-2.874c1.333-0.658,2.828-0.988,4.483-0.988C99.632,110.836,101.663,111.364,103.426,112.422z
			 M100.092,128.284c1.134-1.272,1.701-2.92,1.701-4.942c0-1.992-0.567-3.625-1.701-4.896c-1.134-1.271-2.605-1.908-4.414-1.908
			c-1.809,0-3.287,0.637-4.437,1.908s-1.724,2.904-1.724,4.896c0,2.054,0.575,3.708,1.724,4.965s2.628,1.885,4.437,1.885
			C97.486,130.191,98.958,129.556,100.092,128.284z"/>
		<path fill="#FFFFFF" d="M133.354,114.284c2.069,2.299,3.104,5.502,3.104,9.608c0,0.736-0.016,1.304-0.046,1.701h-17.746
			c0.397,1.563,1.164,2.782,2.298,3.655c1.134,0.874,2.498,1.311,4.093,1.311c1.164,0,2.282-0.222,3.355-0.667
			c1.073-0.443,2.038-1.096,2.896-1.954l3.725,3.771c-1.258,1.41-2.782,2.49-4.575,3.241s-3.793,1.126-5.999,1.126
			c-2.606,0-4.882-0.521-6.828-1.562s-3.448-2.513-4.506-4.414c-1.057-1.9-1.586-4.092-1.586-6.574c0-2.513,0.536-4.728,1.609-6.644
			c1.072-1.915,2.574-3.402,4.506-4.46c1.931-1.058,4.138-1.586,6.62-1.586C128.259,110.836,131.286,111.985,133.354,114.284z
			 M129.792,121.41c-0.062-1.624-0.583-2.927-1.563-3.908c-0.981-0.98-2.284-1.471-3.908-1.471c-1.533,0-2.812,0.482-3.839,1.448
			c-1.027,0.966-1.678,2.275-1.954,3.931H129.792z"/>
		<path fill="#FFFFFF" d="M152.688,116.56c-1.318-0.413-2.499-0.62-3.54-0.62c-0.858,0-1.549,0.153-2.069,0.46
			c-0.521,0.307-0.781,0.766-0.781,1.379c0,0.675,0.352,1.195,1.058,1.563c0.704,0.367,1.854,0.781,3.448,1.241
			c1.747,0.521,3.188,1.034,4.321,1.54s2.115,1.257,2.942,2.253c0.828,0.996,1.241,2.307,1.241,3.931
			c0,2.452-0.942,4.36-2.827,5.724c-1.885,1.364-4.299,2.046-7.241,2.046c-2.023,0-3.97-0.299-5.839-0.896
			c-1.87-0.598-3.494-1.448-4.874-2.551l2.299-4.782c1.257,0.981,2.659,1.74,4.207,2.276s3.012,0.805,4.391,0.805
			c0.95,0,1.709-0.161,2.276-0.483c0.566-0.321,0.851-0.805,0.851-1.448c0-0.704-0.361-1.256-1.081-1.655
			c-0.721-0.397-1.878-0.827-3.471-1.287c-1.687-0.489-3.089-0.98-4.207-1.471c-1.119-0.49-2.077-1.233-2.873-2.23
			c-0.798-0.995-1.196-2.291-1.196-3.885c0-2.452,0.92-4.352,2.759-5.701c1.839-1.348,4.168-2.022,6.988-2.022
			c1.686,0,3.372,0.237,5.058,0.713c1.686,0.475,3.219,1.157,4.598,2.046l-2.437,4.827
			C155.338,117.564,154.005,116.974,152.688,116.56z"/>
	</g>
</g>
</svg>
