<?xml version="1.0" encoding="utf-8"?>
<!-- Generator: Adobe Illustrator 16.0.0, SVG Export Plug-In . SVG Version: 6.00 Build 0)  -->
<!DOCTYPE svg PUBLIC "-//W3C//DTD SVG 1.1//EN" "http://www.w3.org/Graphics/SVG/1.1/DTD/svg11.dtd">
<svg version="1.1" id="Layer_1" xmlns="http://www.w3.org/2000/svg" xmlns:xlink="http://www.w3.org/1999/xlink" x="0px" y="0px"
	 width="200px" height="200px" viewBox="0 0 200 200" enable-background="new 0 0 200 200" xml:space="preserve">
<rect x="-2.73" y="-1.163" fill="#FFD800" width="202.355" height="203.666"/>
<polygon fill="#9E83BC" points="-69.206,121.34 39.857,104.513 28.377,147.725 57.95,146.167 29.752,177.081 80.178,178.079 
	22.272,227.612 "/>
<polygon fill="#F89B1C" points="-40.708,132.517 26.576,104.109 9.375,155.71 42.37,155.71 20.505,183.028 59.458,179.992 
	9.375,224.511 "/>
<polygon fill="#9E83BC" points="126.474,-19.698 72.141,16.049 119.02,7.281 125.658,44.042 158.453,8.872 161.886,28.53 
	179.052,20.771 169.785,68.925 226.977,15.376 230.687,-15.651 "/>
<polygon fill="#F89B1C" points="130.147,-27.118 102.492,0.2 130.147,-7.558 130.147,30.553 169.27,-6.208 165.56,21.11 
	183.097,9.643 178.376,50.156 230.65,7.957 234.36,-23.071 "/>
<circle opacity="0.4" fill="#9E83BC" cx="33.133" cy="48.604" r="7.881"/>
<circle opacity="0.4" fill="#9E83BC" cx="65.149" cy="166.896" r="8.691"/>
<circle opacity="0.4" fill="#9E83BC" cx="115.079" cy="200" r="8.69"/>
<circle opacity="0.4" fill="#9E83BC" cx="60.396" cy="13.562" r="8.691"/>
<circle opacity="0.4" fill="#9E83BC" cx="175.089" cy="92.186" r="9.865"/>
<circle fill="#9E83BC" cx="102.343" cy="94.21" r="48.597"/>
<circle fill="#F89B1C" cx="106.388" cy="90.751" r="44.85"/>
<circle fill="#9E83BC" cx="158.001" cy="150.521" r="24.916"/>
<circle fill="#F89B1C" cx="160.262" cy="152.047" r="22.995"/>
<circle fill="#9E83BC" cx="35.475" cy="49.686" r="24.916"/>
<circle fill="#F89B1C" cx="32.917" cy="48.735" r="22.995"/>
</svg>
