<?xml version="1.0" encoding="utf-8"?>
<!-- Generator: Adobe Illustrator 16.0.0, SVG Export Plug-In . SVG Version: 6.00 Build 0)  -->
<!DOCTYPE svg PUBLIC "-//W3C//DTD SVG 1.1//EN" "http://www.w3.org/Graphics/SVG/1.1/DTD/svg11.dtd">
<svg version="1.1" xmlns="http://www.w3.org/2000/svg" xmlns:xlink="http://www.w3.org/1999/xlink" x="0px" y="0px" width="200px"
	 height="200px" viewBox="0 0 200 200" enable-background="new 0 0 200 200" xml:space="preserve">
<g id="Layer_2">
</g>
<g id="Layer_1">
	<rect x="-3" y="-1" fill="#FFFFFF" width="206" height="203"/>
	<circle fill="#F9F186" cx="62.142" cy="84.689" r="24.419"/>
	<circle fill="#F9F186" cx="189.114" cy="8.535" r="27.201"/>
	<circle fill="#F9F186" cx="100" cy="47.802" r="16.701"/>
	<circle fill="#F9F186" cx="152.25" cy="47.801" r="8.265"/>
	<circle fill="#F9F186" cx="24.455" cy="24.791" r="16.588"/>
	<circle fill="#F9F186" cx="72.619" cy="-3.35" r="13.239"/>
	<circle fill="#F9F186" cx="172.016" cy="130.166" r="21.059"/>
	<circle fill="#F9F186" cx="7.866" cy="144.381" r="21.059"/>
	
		<rect x="172.785" y="50.855" transform="matrix(0.7072 -0.707 0.707 0.7072 11.5854 144.4236)" fill="#C91E50" width="14.743" height="14.74"/>
	
		<rect x="17.679" y="110.255" transform="matrix(0.9687 -0.2482 0.2482 0.9687 -28.4121 9.8988)" fill="#C91E50" width="14.742" height="14.74"/>
	
		<rect x="3.25" y="81.512" transform="matrix(0.8328 -0.5536 0.5536 0.8328 -48.2168 22.2142)" fill="#C91E50" width="18.832" height="18.828"/>
	
		<rect x="74.661" y="14.584" transform="matrix(0.7072 -0.7071 0.7071 0.7072 9.5106 61.9892)" fill="#C91E50" width="9.859" height="9.858"/>
	
		<rect x="146.027" y="11.464" transform="matrix(0.7071 -0.7071 0.7071 0.7071 32.6225 111.5438)" fill="#C91E50" width="9.859" height="9.859"/>
	
		<rect x="137.727" y="128.663" transform="matrix(0.7071 -0.7072 0.7072 0.7071 -52.6807 140.0156)" fill="#C91E50" width="9.86" height="9.859"/>
	<polygon fill="#C5E3C5" points="-25.335,187.213 46.377,102.553 44.717,150.692 100.494,63.377 151.953,158.66 150.958,101.226 
		223.996,208.5 -9.73,203.812 	"/>
	
		<rect x="113.969" y="81.067" transform="matrix(0.7072 -0.707 0.707 0.7072 -26.9967 111.6896)" fill="#C91E50" width="14.743" height="14.74"/>
	
		<rect x="3.12" y="11.018" transform="matrix(0.7071 -0.7071 0.7071 0.7071 -9.103 10.8085)" fill="#C91E50" width="10.751" height="10.75"/>
</g>
</svg>
