<?xml version="1.0" encoding="utf-8"?>
<!-- Generator: Adobe Illustrator 16.0.0, SVG Export Plug-In . SVG Version: 6.00 Build 0)  -->
<!DOCTYPE svg PUBLIC "-//W3C//DTD SVG 1.1//EN" "http://www.w3.org/Graphics/SVG/1.1/DTD/svg11.dtd">
<svg version="1.1" xmlns="http://www.w3.org/2000/svg" xmlns:xlink="http://www.w3.org/1999/xlink" x="0px" y="0px" width="200px"
	 height="200px" viewBox="0 0 200 200" enable-background="new 0 0 200 200" xml:space="preserve">
<g id="Layer_3">
	<rect fill="#FFFFFF" width="200" height="200"/>
</g>
<g id="Layer_1">
	<circle fill="#FAF287" cx="61.494" cy="84.104" r="24.518"/>
	<circle fill="#FAF287" cx="188.976" cy="7.645" r="27.31"/>
	<circle fill="#FAF287" cx="23.655" cy="23.966" r="16.655"/>
	<circle fill="#FAF287" cx="171.809" cy="129.764" r="21.144"/>
	<circle fill="#FAF287" cx="-3.812" cy="159.097" r="21.144"/>
	<g id="Layer_2">
		
			<rect x="172.581" y="50.134" transform="matrix(0.7072 -0.7071 0.7071 0.7072 12.027 144.1059)" fill="#CA1E4F" width="14.801" height="14.799"/>
		
			<rect x="27.896" y="116.801" transform="matrix(0.9687 -0.2483 0.2483 0.9687 -29.7299 12.6516)" fill="#CA1E4F" width="14.802" height="14.799"/>
		
			<rect x="2.364" y="80.915" transform="matrix(0.8328 -0.5536 0.5536 0.8328 -48.0491 21.6519)" fill="#CA1E4F" width="18.907" height="18.904"/>
		
			<rect x="74.062" y="13.717" transform="matrix(0.7071 -0.7071 0.7071 0.7071 9.9414 61.3348)" fill="#CA1E4F" width="9.899" height="9.898"/>
		
			<rect x="145.715" y="10.585" transform="matrix(0.7071 -0.7071 0.7071 0.7071 33.1411 111.082)" fill="#CA1E4F" width="9.899" height="9.898"/>
		
			<rect x="137.382" y="128.256" transform="matrix(0.7071 -0.7071 0.7071 0.7071 -52.5021 139.6588)" fill="#CA1E4F" width="9.899" height="9.898"/>
	</g>
	<polygon fill="#C6E4C6" points="-26.335,200 45.666,115 43.999,163.333 100,75.667 151.666,171.333 150.666,113.667 
		223.998,201.666 -10.668,216.666 	"/>
	
		<rect x="113.529" y="80.467" transform="matrix(0.7071 -0.7071 0.7071 0.7071 -26.713 111.2394)" fill="#CA1E4F" width="14.802" height="14.8"/>
	
		<rect x="2.235" y="10.138" transform="matrix(0.7072 -0.7071 0.7071 0.7072 -8.7486 9.9455)" fill="#CA1E4F" width="10.794" height="10.793"/>
	<g>
		<g>
			<path fill="#150F25" d="M17.331,27.344h3.802l4.271,11.807l4.293-11.807h3.646l-6.217,15.653H23.48L17.331,27.344z"/>
			<path fill="#150F25" d="M40.744,42.997v-1.409c-0.402,0.507-0.925,0.895-1.565,1.163s-1.379,0.402-2.214,0.402
				c-1.267,0-2.273-0.347-3.019-1.04c-0.746-0.693-1.118-1.599-1.118-2.717c0-1.133,0.398-2.016,1.196-2.649
				s1.927-0.958,3.388-0.974h3.31V35.55c0-0.641-0.212-1.136-0.637-1.486s-1.048-0.525-1.867-0.525c-1.118,0-2.312,0.35-3.578,1.051
				l-1.073-2.37c0.953-0.478,1.848-0.828,2.684-1.052c0.834-0.224,1.751-0.335,2.75-0.335c1.61,0,2.858,0.38,3.746,1.141
				c0.887,0.76,1.338,1.818,1.353,3.175l0.022,7.85H40.744z M39.783,40.18c0.521-0.343,0.834-0.775,0.938-1.298v-1.073h-2.705
				c-0.671,0-1.167,0.108-1.487,0.324c-0.321,0.217-0.481,0.563-0.481,1.04c0,0.462,0.168,0.831,0.504,1.107
				c0.335,0.275,0.794,0.413,1.375,0.413C38.643,40.693,39.261,40.522,39.783,40.18z"/>
			<path fill="#150F25" d="M57.907,32.084c0.797,0.835,1.196,1.953,1.196,3.354v7.559h-3.444v-6.553c0-0.76-0.212-1.359-0.637-1.8
				c-0.425-0.439-1.003-0.659-1.733-0.659c-0.85,0.015-1.521,0.31-2.013,0.883c-0.491,0.574-0.737,1.309-0.737,2.203v5.926h-3.444
				V30.966h3.444v2.103c0.834-1.461,2.221-2.206,4.159-2.236C56.04,30.832,57.109,31.249,57.907,32.084z"/>
			<path fill="#150F25" d="M71.659,32.531c1.007,1.118,1.51,2.676,1.51,4.674c0,0.357-0.008,0.634-0.022,0.827h-8.632
				c0.193,0.761,0.566,1.354,1.118,1.778s1.215,0.637,1.99,0.637c0.566,0,1.11-0.107,1.633-0.324
				c0.521-0.216,0.991-0.532,1.408-0.95l1.812,1.834c-0.611,0.686-1.353,1.211-2.225,1.576s-1.845,0.548-2.919,0.548
				c-1.267,0-2.374-0.253-3.32-0.76c-0.947-0.507-1.677-1.223-2.191-2.147c-0.515-0.924-0.771-1.99-0.771-3.197
				c0-1.223,0.261-2.3,0.782-3.231c0.522-0.932,1.253-1.655,2.191-2.169c0.939-0.515,2.013-0.771,3.221-0.771
				C69.181,30.854,70.653,31.413,71.659,32.531z M69.927,35.997c-0.03-0.79-0.283-1.423-0.761-1.9
				c-0.478-0.477-1.11-0.716-1.9-0.716c-0.746,0-1.368,0.235-1.867,0.705c-0.5,0.469-0.816,1.106-0.95,1.911H69.927z"/>
			<path fill="#150F25" d="M81.062,33.639c-0.641-0.201-1.215-0.303-1.722-0.303c-0.418,0-0.753,0.075-1.006,0.224
				c-0.254,0.149-0.381,0.373-0.381,0.671c0,0.328,0.172,0.582,0.515,0.761s0.901,0.38,1.677,0.604
				c0.851,0.254,1.551,0.503,2.103,0.749c0.551,0.246,1.028,0.612,1.431,1.096c0.403,0.485,0.604,1.122,0.604,1.912
				c0,1.193-0.459,2.121-1.376,2.784c-0.916,0.664-2.091,0.995-3.521,0.995c-0.984,0-1.931-0.146-2.84-0.436
				c-0.91-0.291-1.7-0.705-2.371-1.241l1.118-2.326c0.611,0.478,1.294,0.847,2.047,1.107c0.752,0.261,1.464,0.391,2.135,0.391
				c0.462,0,0.831-0.078,1.107-0.234c0.275-0.156,0.414-0.392,0.414-0.704c0-0.343-0.176-0.611-0.526-0.806
				c-0.35-0.193-0.913-0.402-1.688-0.626c-0.82-0.238-1.503-0.477-2.047-0.716c-0.544-0.238-1.01-0.6-1.397-1.084
				s-0.581-1.114-0.581-1.89c0-1.192,0.447-2.117,1.342-2.773c0.895-0.655,2.027-0.983,3.398-0.983c0.82,0,1.64,0.115,2.46,0.347
				s1.565,0.562,2.236,0.995l-1.186,2.348C82.353,34.127,81.703,33.84,81.062,33.639z"/>
			<path fill="#150F25" d="M92.221,33.639c-0.641-0.201-1.215-0.303-1.722-0.303c-0.418,0-0.753,0.075-1.006,0.224
				c-0.254,0.149-0.381,0.373-0.381,0.671c0,0.328,0.172,0.582,0.515,0.761s0.901,0.38,1.677,0.604
				c0.851,0.254,1.551,0.503,2.103,0.749c0.551,0.246,1.028,0.612,1.431,1.096c0.403,0.485,0.604,1.122,0.604,1.912
				c0,1.193-0.459,2.121-1.376,2.784c-0.916,0.664-2.091,0.995-3.521,0.995c-0.984,0-1.931-0.146-2.84-0.436
				c-0.91-0.291-1.7-0.705-2.371-1.241l1.118-2.326c0.611,0.478,1.294,0.847,2.047,1.107c0.752,0.261,1.464,0.391,2.135,0.391
				c0.462,0,0.831-0.078,1.107-0.234c0.275-0.156,0.414-0.392,0.414-0.704c0-0.343-0.176-0.611-0.526-0.806
				c-0.35-0.193-0.913-0.402-1.688-0.626c-0.82-0.238-1.503-0.477-2.047-0.716c-0.544-0.238-1.01-0.6-1.397-1.084
				s-0.581-1.114-0.581-1.89c0-1.192,0.447-2.117,1.342-2.773c0.895-0.655,2.027-0.983,3.398-0.983c0.82,0,1.64,0.115,2.46,0.347
				s1.565,0.562,2.236,0.995l-1.186,2.348C93.511,34.127,92.861,33.84,92.221,33.639z"/>
			<path fill="#150F25" d="M104.721,42.997v-1.409c-0.402,0.507-0.924,0.895-1.564,1.163c-0.643,0.269-1.379,0.402-2.214,0.402
				c-1.268,0-2.273-0.347-3.02-1.04c-0.745-0.693-1.117-1.599-1.117-2.717c0-1.133,0.398-2.016,1.196-2.649
				c0.797-0.634,1.926-0.958,3.387-0.974h3.311V35.55c0-0.641-0.213-1.136-0.639-1.486c-0.424-0.351-1.047-0.525-1.867-0.525
				c-1.117,0-2.31,0.35-3.577,1.051l-1.073-2.37c0.954-0.478,1.849-0.828,2.684-1.052c0.834-0.224,1.752-0.335,2.75-0.335
				c1.611,0,2.859,0.38,3.746,1.141c0.887,0.76,1.338,1.818,1.354,3.175l0.021,7.85H104.721z M103.76,40.18
				c0.521-0.343,0.834-0.775,0.939-1.298v-1.073h-2.707c-0.67,0-1.166,0.108-1.486,0.324c-0.32,0.217-0.48,0.563-0.48,1.04
				c0,0.462,0.168,0.831,0.503,1.107c0.336,0.275,0.794,0.413,1.376,0.413C102.619,40.693,103.238,40.522,103.76,40.18z"/>
			<path fill="#150F25" d="M113.241,26.874c0.327,0.312,0.491,0.737,0.491,1.274c0,0.238-0.037,0.458-0.111,0.659
				c-0.075,0.202-0.187,0.444-0.336,0.728l-1.587,2.84h-1.678l1.052-2.817c-0.492-0.313-0.738-0.783-0.738-1.409
				c0-0.507,0.164-0.924,0.492-1.252c0.327-0.328,0.737-0.492,1.229-0.492C112.518,26.404,112.913,26.561,113.241,26.874z"/>
			<path fill="#150F25" d="M121.895,33.639c-0.642-0.201-1.215-0.303-1.722-0.303c-0.418,0-0.753,0.075-1.007,0.224
				c-0.253,0.149-0.38,0.373-0.38,0.671c0,0.328,0.171,0.582,0.515,0.761c0.343,0.179,0.901,0.38,1.677,0.604
				c0.85,0.254,1.551,0.503,2.103,0.749c0.551,0.246,1.028,0.612,1.431,1.096c0.402,0.485,0.604,1.122,0.604,1.912
				c0,1.193-0.458,2.121-1.375,2.784c-0.917,0.664-2.091,0.995-3.521,0.995c-0.984,0-1.932-0.146-2.841-0.436
				c-0.909-0.291-1.699-0.705-2.37-1.241l1.118-2.326c0.611,0.478,1.293,0.847,2.046,1.107s1.465,0.391,2.136,0.391
				c0.462,0,0.831-0.078,1.107-0.234c0.275-0.156,0.413-0.392,0.413-0.704c0-0.343-0.175-0.611-0.525-0.806
				c-0.351-0.193-0.913-0.402-1.688-0.626c-0.819-0.238-1.502-0.477-2.046-0.716c-0.544-0.238-1.01-0.6-1.397-1.084
				s-0.581-1.114-0.581-1.89c0-1.192,0.447-2.117,1.341-2.773c0.895-0.655,2.027-0.983,3.399-0.983c0.819,0,1.64,0.115,2.46,0.347
				c0.819,0.231,1.565,0.562,2.236,0.995l-1.186,2.348C123.184,34.127,122.535,33.84,121.895,33.639z"/>
		</g>
	</g>
	<g>
		<g>
			<path fill="#150F25" d="M17.652,47.524H41.17v5.387h-8.604v22.755h-6.352V52.912h-8.563V47.524z"/>
			<path fill="#150F25" d="M57.634,55.203c1.755,0.912,3.116,2.198,4.081,3.859c0.965,1.662,1.447,3.592,1.447,5.79
				c0,2.171-0.482,4.094-1.447,5.769c-0.965,1.675-2.325,2.975-4.081,3.899c-1.756,0.925-3.773,1.387-6.05,1.387
				c-2.306,0-4.336-0.462-6.091-1.387c-1.756-0.924-3.116-2.224-4.081-3.899c-0.965-1.675-1.448-3.598-1.448-5.769
				c0-2.198,0.482-4.127,1.448-5.79c0.965-1.662,2.325-2.948,4.081-3.859c1.755-0.911,3.785-1.367,6.091-1.367
				C53.861,53.836,55.878,54.292,57.634,55.203z M47.664,60.63c-1.005,1.1-1.508,2.533-1.508,4.302s0.502,3.203,1.508,4.302
				c1.005,1.1,2.312,1.648,3.92,1.648c1.581,0,2.875-0.549,3.879-1.648c1.005-1.099,1.508-2.533,1.508-4.302
				s-0.503-3.202-1.508-4.302c-1.005-1.099-2.298-1.648-3.879-1.648C49.975,58.982,48.668,59.532,47.664,60.63z"/>
			<path fill="#150F25" d="M85.816,55.223c1.541,0.925,2.734,2.231,3.578,3.92c0.844,1.688,1.266,3.632,1.266,5.83
				c0,2.171-0.416,4.081-1.246,5.729c-0.831,1.648-2.003,2.929-3.517,3.84c-1.515,0.911-3.277,1.367-5.287,1.367
				c-1.501,0-2.834-0.288-4-0.864c-1.166-0.576-2.151-1.414-2.955-2.513v10.935h-6.191V54.037h6.191v3.176
				c0.777-1.099,1.749-1.936,2.915-2.513c1.166-0.576,2.472-0.865,3.919-0.865C82.5,53.836,84.275,54.298,85.816,55.223z
				 M82.902,69.093c0.991-1.112,1.487-2.553,1.487-4.322c0-1.742-0.496-3.169-1.487-4.282c-0.992-1.112-2.278-1.668-3.86-1.668
				s-2.875,0.557-3.879,1.668c-1.005,1.112-1.508,2.54-1.508,4.282c0,1.796,0.503,3.243,1.508,4.342
				c1.005,1.1,2.298,1.648,3.879,1.648S81.91,70.206,82.902,69.093z"/>
			<path fill="#150F25" d="M104.289,47.524h6.353v11.739h12.744V47.524h6.352v28.142h-6.352V64.57h-12.744v11.096h-6.353V47.524z"/>
			<path fill="#150F25" d="M141.296,45.394c0.629,0.643,0.944,1.474,0.944,2.493s-0.315,1.849-0.944,2.493
				c-0.63,0.643-1.441,0.965-2.433,0.965c-0.965,0-1.763-0.328-2.392-0.985c-0.63-0.656-0.945-1.48-0.945-2.472
				c0-1.019,0.315-1.85,0.945-2.493c0.629-0.644,1.427-0.965,2.392-0.965C139.854,44.429,140.666,44.75,141.296,45.394z
				 M135.808,54.037h6.191v21.629h-6.191V54.037z"/>
			<path fill="#150F25" d="M161.336,74.46c-0.804,0.482-1.695,0.851-2.673,1.105c-0.979,0.254-1.964,0.382-2.955,0.382
				c-2.011,0-3.646-0.576-4.905-1.729c-1.26-1.152-1.89-2.8-1.89-4.945V59.264h-3.015v-4.262h3.015v-5.95h6.151v5.95h5.87v4.302
				h-5.87v8.925c0,1.662,0.656,2.493,1.97,2.493c0.911,0,1.916-0.268,3.016-0.804L161.336,74.46z"/>
			<path fill="#150F25" d="M175.206,58.841c-1.153-0.362-2.185-0.542-3.096-0.542c-0.751,0-1.354,0.134-1.81,0.402
				c-0.456,0.268-0.684,0.67-0.684,1.206c0,0.59,0.309,1.045,0.925,1.367c0.616,0.321,1.622,0.683,3.016,1.085
				c1.527,0.456,2.787,0.904,3.779,1.347c0.991,0.442,1.849,1.099,2.572,1.97c0.724,0.872,1.086,2.017,1.086,3.438
				c0,2.145-0.824,3.813-2.473,5.005c-1.648,1.193-3.759,1.789-6.332,1.789c-1.769,0-3.471-0.261-5.105-0.784
				c-1.636-0.522-3.056-1.266-4.262-2.231l2.01-4.181c1.099,0.858,2.325,1.521,3.679,1.99c1.354,0.469,2.634,0.704,3.84,0.704
				c0.83,0,1.494-0.141,1.99-0.422c0.495-0.282,0.743-0.704,0.743-1.267c0-0.616-0.315-1.099-0.944-1.447
				c-0.63-0.348-1.643-0.724-3.035-1.125c-1.475-0.429-2.701-0.857-3.679-1.287c-0.979-0.428-1.816-1.079-2.513-1.95
				c-0.697-0.871-1.046-2.003-1.046-3.397c0-2.144,0.805-3.805,2.412-4.985c1.608-1.179,3.646-1.769,6.111-1.769
				c1.474,0,2.948,0.208,4.423,0.623c1.474,0.416,2.813,1.012,4.02,1.789l-2.131,4.221C177.523,59.72,176.358,59.203,175.206,58.841
				z"/>
		</g>
	</g>
</g>
</svg>
