<?xml version="1.0" encoding="utf-8"?>
<!-- Generator: Adobe Illustrator 16.0.0, SVG Export Plug-In . SVG Version: 6.00 Build 0)  -->
<!DOCTYPE svg PUBLIC "-//W3C//DTD SVG 1.1//EN" "http://www.w3.org/Graphics/SVG/1.1/DTD/svg11.dtd">
<svg version="1.1" xmlns="http://www.w3.org/2000/svg" xmlns:xlink="http://www.w3.org/1999/xlink" x="0px" y="0px" width="200px"
	 height="200px" viewBox="0 0 200 200" enable-background="new 0 0 200 200" xml:space="preserve">
<g id="Layer_2">
	<rect fill="#3A55A5" width="200" height="200"/>
</g>
<g id="Layer_3">
	<polygon fill="#FFFFFF" points="168.379,87.807 12.239,108.5 38.054,55 194,55 	"/>
	<polygon fill="#1C1F52" points="-67.709,0.737 55.08,-15.536 36,49 -87.857,26.536 	"/>
	<polygon fill="#E46399" points="-78.209,-9.263 44.58,-25.536 25.5,39 -98.357,16.536 	"/>
	<g display="none">
		<g display="inline">
			<path fill="#1C1F52" d="M78.739,154.112c4.048-7.266,8.348-10.58,16.459-7.506c6.915,2.621,13.282,6.893,19.491,10.839
				c5.167,3.284,10.831,6.693,17.107,6.944c6.146,0.245,9.682-4.904,11.447-10.085c1.043-3.062-3.788-4.363-4.822-1.33
				c-2.937,8.618-9.628,6.661-16.164,3.163c-6.287-3.364-12.082-7.541-18.395-10.892c-4.96-2.632-10.577-5.616-16.375-5.008
				c-6.303,0.662-10.231,6.261-13.067,11.351C72.851,154.408,77.17,156.929,78.739,154.112L78.739,154.112z"/>
		</g>
	</g>
	<g>
		<g>
			<g>
				<g>
					<path fill="#1C1F52" d="M97.933,137.367c-9.607,3.436-15.265,9.916-19.111,19.127c-1.184,2.834-1.948,5.835-2.825,8.771
						c-0.226,0.757-1.812,4.973-0.589,2.114c-0.242,0.565-0.537,1.104-0.838,1.639c-0.843,1.499,1.694-1.648-0.187,0.182
						c1.93-1.878-0.428-0.204,2.057-1.175c-0.785,0.307-2.459,0.228,0.212,0.062c-0.575,0.035-2.754-0.36-0.391,0.06
						c-0.932-0.166-1.84-0.464-2.74-0.747c-3.658-1.149-8.544-4.211-13.013-5.61c-8.054-2.521-16.383-0.206-21.02,6.992
						c-3.458,5.366-3.372,12.695-2.872,18.811c0.288,3.524,0.813,7.034,1.294,10.535c0.095,0.69,0.191,1.381,0.287,2.072
						c0.331,2.386-0.303-2.332-0.002-0.017c0.179,1.374,0.329,2.752,0.435,4.134c0.073,0.952,0.093,1.906,0.053,2.86
						c-0.072,1.736,0.489-2.752,0.162-1.198c-0.119,0.563,1.689-2.79,2-3.187c1.882-2.405,5.44-2.6,8.185-2.163
						c-0.667-0.106-2.391-0.91,0.335,0.279c-1.485-0.648-2.852-1.581-4.181-2.497c-0.261-0.18-2.399-1.79-0.631-0.418
						c-0.707-0.549-1.396-1.119-2.087-1.688c-1.476-1.215-2.913-2.479-4.346-3.743c-3.229-2.849-6.393-5.771-9.624-8.619
						c-5.263-4.64-11.06-10.019-17.996-11.94c-10.267-2.846-16.869,5.737-17.194,15.08c-0.45,12.903,19.552,12.86,20,0
						c0.089-2.558-0.495,2.121-0.075-0.004c0.297-1.506-1.376,2.07-1.593,2.341c-1.178,1.471-3.34,1.933-5.083,2.07
						c1.702-0.134-2.718-0.575-0.904-0.072c1.879,0.521-2.265-1.098-0.338-0.134c0.588,0.294,1.148,0.646,1.707,0.992
						c0.628,0.388,1.23,0.817,1.833,1.242c2.156,1.52-0.061-0.101,1.266,0.968c6.287,5.063,12.015,10.785,18.206,15.962
						c5.536,4.63,13.572,11.658,21.485,9.494c7.352-2.01,9.295-9.453,8.78-16.169c-0.246-3.203-0.759-6.395-1.2-9.573
						c-0.097-0.698-0.193-1.396-0.29-2.093c0.391,2.84,0.05,0.341-0.019-0.198c-0.212-1.673-0.385-3.349-0.522-5.028
						c-0.113-1.381-0.166-2.766-0.18-4.151c-0.008-0.86,0.396-5.179-0.073-1.739c0.13-0.958,1.364-4.465,0.001-1.254
						c0.188-0.444,0.445-0.852,0.706-1.256c-1.136,1.377-1.36,1.705-0.671,0.982c-1.469,1.049-1.778,1.303-0.928,0.762
						c-2.122,1.307-1.708,0.62-0.585,0.35c-2.754,0.664-1.456,0.188-0.427,0.218c-3.018-0.085,1.272,0.424,2.389,0.815
						c2.779,0.975-1.77-0.873,1.214,0.564c1.167,0.562,2.309,1.177,3.475,1.741c2.758,1.334,5.638,2.518,8.597,3.323
						c8.761,2.384,17.537-0.609,22.057-8.646c2.528-4.494,3.524-9.718,5.149-14.562c0.17-0.496,0.348-0.99,0.535-1.481
						c0.923-2.49-0.897,1.885,0.251-0.519c0.575-1.203,1.288-2.327,2.052-3.416c-1.705,2.428,2.687-2.097,0.512-0.476
						c0.483-0.342,0.982-0.658,1.497-0.949c2.406-1.442-1.713,0.478,1.119-0.535c5.127-1.834,8.512-6.747,6.984-12.301
						C108.87,139.394,103.069,135.53,97.933,137.367L97.933,137.367z"/>
				</g>
			</g>
			<g>
				<g>
					<path fill="#1C1F52" d="M187.903,105.697c-0.697,3.316-1.338,6.646-2.233,9.916c-0.216,0.786-1.919,5.04-0.8,2.588
						c-0.296,0.648-0.655,1.263-1.018,1.875c-0.853,1.438,1.339-1.309-0.572,0.688c-1.615,1.688,1.814-1.15-0.165,0.185
						c-0.427,0.288-2.587,1.226-0.309,0.317c-0.775,0.309-1.593,0.498-2.401,0.69c-2.784,0.663,2.021-0.098-1.108,0.122
						c-5.663,0.398-11.175-1.064-16.639-2.537c-8.441-2.275-16.998,0.932-21.09,8.833c-3.521,6.798-3.898,14.848-4.118,22.35
						c-0.095,3.26-0.094,6.521-0.182,9.782c-0.038,1.407-0.11,2.813-0.222,4.217c-0.055,0.694-0.411,2.926,0.071-0.269
						c-0.101,0.666-0.258,1.317-0.442,1.965c-0.487,1.712,1.168-2.321,0.37-0.925c1.499-2.623,3.985-3.438,6.93-3.821
						c2.37-0.309,2.504,0.517,0.854-0.056c2.575,0.893,0.556,0.122-0.05-0.24c-0.316-0.189-2.378-1.691-0.572-0.292
						c-0.702-0.544-1.37-1.131-2.041-1.713c-1.737-1.507-3.382-3.126-5.027-4.732c-6.383-6.23-12.849-13.163-20.983-17.105
						c-9.824-4.761-20.223-3.312-27.974,4.547c-0.25,0.282-0.501,0.565-0.752,0.848c-8.527,9.61,5.565,23.808,14.143,14.143
						c1.92-2.164,1.506-1.827,3.35-2.776c-2.271,1.169,1.83,0.008-1.086,0.323c0.536-0.059,3.015,0.244,0.56-0.151
						c0.831,0.134,1.636,0.41,2.431,0.676c-2.09-0.698,0.56,0.326,0.861,0.486c0.841,0.445,1.639,0.974,2.435,1.493
						c0.549,0.368,1.088,0.75,1.619,1.143c-0.682-0.536-0.552-0.426,0.391,0.332c6.549,5.327,11.92,11.97,18.597,17.144
						c7.502,5.813,17.13,9.104,23.588-0.152c3.545-5.08,2.943-13.128,3.032-19.016c0.05-3.358,0.093-6.716,0.276-10.071
						c0.042-0.781,0.549-5.656,0.188-3.004c0.231-1.696,0.599-3.366,1.088-5.006c0.187-0.628,1.142-2.627-0.062-0.022
						c0.25-0.541,0.57-1.041,0.896-1.537c-1.706,2.603,0.831-0.294-1.694,1.64c0.716-0.549,2.159-0.795-0.469,0.085
						c1.923-0.644-2.51,0.097-0.335,0.082c2.251-0.016-2.324-0.518,0.107,0.088c3.639,0.907,7.232,1.812,10.941,2.399
						c10.301,1.629,20.387,1.13,28.636-5.845c5.746-4.859,7.876-13.043,9.377-20.079c0.304-1.428,0.593-2.859,0.893-4.288
						C209.833,98.432,190.556,93.079,187.903,105.697L187.903,105.697z"/>
				</g>
			</g>
		</g>
	</g>
	<g>
		<g>
			<g>
				<path fill="#E46399" d="M98.181,146.345c-1.569,7.469-2.826,15.205-6.199,22.122c-4.069,8.345-11.032,10.276-19.517,7.145
					c-5.314-1.961-11.646-8.633-17.05-3.167c-3.84,3.885-4.262,10.939-4.924,16.011c-0.763,5.841-0.542,12.713-2.917,18.201
					c-0.83,1.919-1.272,1.132-3.119,0.161c-3.185-1.675-5.992-4.097-8.721-6.41c-6.12-5.188-11.821-10.86-18.125-15.833
					c-3.251-2.565-8.91-7.328-13.415-5.02c-2.779,1.424-3.292,4.707-3.39,7.528c-0.112,3.226,4.888,3.215,5,0
					c0.059-1.68-0.135-3.444,1.839-2.897c2.853,0.791,5.53,3.188,7.778,4.998c6.286,5.062,12.014,10.784,18.205,15.961
					c3.722,3.113,9.157,8.275,14.448,7.552c4.501-0.616,5.351-8.066,5.862-11.401c1.016-6.627,1.267-13.374,2.798-19.918
					c0.438-1.87,1.041-4.695,2.74-5.88c2.149-1.497,7.996,3.345,9.862,4.189c6.745,3.054,14.959,4.032,21.027-0.993
					c5.6-4.637,8.108-11.95,9.929-18.751c1.083-4.046,1.848-8.172,2.708-12.268C103.663,144.529,98.844,143.19,98.181,146.345
					L98.181,146.345z"/>
			</g>
		</g>
		<g>
			<g>
				<path fill="#E46399" d="M195.135,107.69c-1.568,7.469-2.825,15.205-6.198,22.122c-4.069,8.345-11.032,10.276-19.518,7.145
					c-5.314-1.962-11.646-8.634-17.05-3.168c-3.84,3.885-4.262,10.939-4.923,16.011c-0.763,5.841-0.543,12.713-2.918,18.201
					c-0.829,1.918-1.271,1.131-3.118,0.16c-3.185-1.674-5.991-4.096-8.72-6.409c-6.12-5.188-11.821-10.86-18.125-15.833
					c-3.252-2.564-8.911-7.327-13.415-5.019c-2.78,1.424-3.292,4.707-3.391,7.528c-0.113,3.226,4.888,3.215,5,0
					c0.059-1.68-0.135-3.444,1.84-2.897c2.853,0.791,5.53,3.188,7.777,4.997c6.286,5.063,12.015,10.784,18.205,15.962
					c3.723,3.112,9.156,8.273,14.447,7.55c4.501-0.615,5.352-8.065,5.862-11.4c1.016-6.627,1.267-13.374,2.798-19.918
					c0.438-1.87,1.04-4.695,2.74-5.88c2.148-1.497,7.996,3.345,9.861,4.189c6.745,3.054,14.96,4.032,21.028-0.992
					c5.6-4.637,8.108-11.95,9.929-18.751c1.083-4.046,1.848-8.172,2.709-12.268C200.617,105.875,195.798,104.536,195.135,107.69
					L195.135,107.69z"/>
			</g>
		</g>
	</g>
</g>
<g id="Layer_1">
	<g>
		<path fill="#1C1F52" d="M20.979,85.728c1.125,1.151,2.626,1.727,4.506,1.727c1.826,0,3.282-0.569,4.367-1.707
			c1.085-1.138,1.628-2.713,1.628-4.725V64.704h6.273v16.318c0,2.436-0.497,4.546-1.489,6.333c-0.993,1.787-2.416,3.163-4.269,4.129
			c-1.853,0.967-4.037,1.449-6.551,1.449c-2.515,0-4.712-0.482-6.591-1.449c-1.88-0.966-3.322-2.342-4.328-4.129
			s-1.509-3.897-1.509-6.333V64.704h6.273v16.318C19.292,83.008,19.854,84.576,20.979,85.728z"/>
		<path fill="#1C1F52" d="M43.471,63.037h6.114v29.46h-6.114V63.037z"/>
		<path fill="#1C1F52" d="M68.921,91.306c-0.794,0.476-1.674,0.84-2.641,1.092c-0.966,0.251-1.939,0.377-2.918,0.377
			c-1.985,0-3.6-0.569-4.844-1.707c-1.244-1.138-1.866-2.766-1.866-4.884v-9.886h-2.978v-4.208h2.978v-5.876h6.075v5.876h5.797
			v4.248h-5.797v8.814c0,1.642,0.648,2.461,1.945,2.461c0.899,0,1.892-0.264,2.978-0.794L68.921,91.306z"/>
		<path fill="#1C1F52" d="M78.033,62.6c0.622,0.635,0.933,1.456,0.933,2.461c0,1.006-0.311,1.827-0.933,2.462
			c-0.623,0.635-1.423,0.953-2.402,0.953c-0.953,0-1.741-0.324-2.362-0.973c-0.622-0.648-0.933-1.462-0.933-2.442
			c0-1.005,0.311-1.826,0.933-2.461c0.622-0.635,1.41-0.953,2.362-0.953C76.609,61.647,77.41,61.965,78.033,62.6z M72.613,71.136
			h6.115v21.361h-6.115V71.136z"/>
		<path fill="#1C1F52" d="M118.49,73.102c1.39,1.469,2.085,3.461,2.085,5.976v13.42H114.5V80.864c0-1.376-0.371-2.448-1.111-3.216
			c-0.741-0.768-1.747-1.151-3.018-1.151c-1.456,0.026-2.607,0.542-3.454,1.548c-0.848,1.006-1.271,2.303-1.271,3.891v10.561h-6.075
			V80.864c0-1.35-0.364-2.415-1.092-3.196c-0.729-0.78-1.727-1.171-2.997-1.171c-1.456,0.026-2.614,0.542-3.475,1.548
			c-0.86,1.006-1.29,2.303-1.29,3.891v10.561h-6.115V71.136h6.115v3.692c1.481-2.567,3.891-3.877,7.226-3.931
			c1.8,0,3.322,0.431,4.566,1.291c1.244,0.86,2.13,2.071,2.66,3.633c0.688-1.614,1.688-2.832,2.997-3.653
			c1.311-0.82,2.879-1.244,4.705-1.271C115.228,70.898,117.101,71.633,118.49,73.102z"/>
		<path fill="#1C1F52" d="M138.243,92.497v-2.501c-0.715,0.9-1.642,1.588-2.779,2.065c-1.139,0.476-2.449,0.714-3.931,0.714
			c-2.251,0-4.037-0.615-5.36-1.846c-1.324-1.231-1.985-2.839-1.985-4.824c0-2.011,0.708-3.579,2.124-4.705
			c1.416-1.125,3.421-1.701,6.016-1.727h5.876v-0.397c0-1.138-0.377-2.018-1.132-2.641c-0.754-0.622-1.859-0.933-3.315-0.933
			c-1.985,0-4.103,0.623-6.353,1.866l-1.905-4.208c1.693-0.847,3.281-1.469,4.765-1.866c1.481-0.397,3.109-0.596,4.883-0.596
			c2.859,0,5.075,0.675,6.65,2.025c1.575,1.35,2.376,3.23,2.402,5.638l0.04,13.936H138.243z M136.535,87.494
			c0.927-0.608,1.482-1.376,1.668-2.303v-1.906h-4.805c-1.19,0-2.071,0.192-2.64,0.576c-0.569,0.384-0.854,1-0.854,1.846
			c0,0.821,0.298,1.476,0.893,1.965c0.596,0.49,1.41,0.735,2.442,0.735C134.511,88.408,135.608,88.104,136.535,87.494z"/>
		<path fill="#1C1F52" d="M162.739,91.306c-0.794,0.476-1.674,0.84-2.64,1.092c-0.967,0.251-1.939,0.377-2.919,0.377
			c-1.984,0-3.6-0.569-4.844-1.707c-1.244-1.138-1.866-2.766-1.866-4.884v-9.886h-2.978v-4.208h2.978v-5.876h6.075v5.876h5.797
			v4.248h-5.797v8.814c0,1.642,0.648,2.461,1.945,2.461c0.899,0,1.893-0.264,2.978-0.794L162.739,91.306z"/>
		<path fill="#1C1F52" d="M183.286,73.916c1.787,1.985,2.68,4.751,2.68,8.298c0,0.635-0.014,1.125-0.039,1.469h-15.326
			c0.344,1.35,1.006,2.402,1.985,3.157c0.979,0.754,2.157,1.131,3.534,1.131c1.005,0,1.971-0.191,2.897-0.576
			c0.927-0.383,1.761-0.946,2.502-1.688l3.216,3.256c-1.086,1.218-2.402,2.151-3.95,2.799c-1.549,0.649-3.276,0.973-5.182,0.973
			c-2.25,0-4.216-0.45-5.896-1.35c-1.681-0.899-2.978-2.17-3.891-3.812c-0.913-1.641-1.37-3.534-1.37-5.678
			c0-2.17,0.463-4.083,1.39-5.737c0.927-1.654,2.224-2.938,3.892-3.851c1.667-0.913,3.573-1.37,5.717-1.37
			C178.886,70.938,181.5,71.93,183.286,73.916z M180.209,80.07c-0.053-1.403-0.503-2.527-1.35-3.375
			c-0.848-0.847-1.973-1.271-3.375-1.271c-1.324,0-2.429,0.417-3.315,1.25c-0.887,0.834-1.449,1.966-1.688,3.395H180.209z"/>
	</g>
	<g>
		<path fill="#FFFFFF" d="M37.824,130.703l-1.705-4.216H26.075l-1.705,4.216h-5.053l9.424-21.7h5.053l9.269,21.7H37.824z
			 M27.687,122.55h6.851l-3.41-8.432L27.687,122.55z"/>
		<path fill="#FFFFFF" d="M59.54,114.939c1.188,0.713,2.108,1.721,2.759,3.022c0.651,1.302,0.977,2.801,0.977,4.495
			c0,1.674-0.321,3.146-0.961,4.418c-0.641,1.271-1.545,2.258-2.712,2.96c-1.168,0.703-2.526,1.054-4.077,1.054
			c-1.158,0-2.186-0.222-3.084-0.666s-1.659-1.09-2.278-1.938v8.432h-4.774v-22.691h4.774v2.449
			c0.599-0.848,1.348-1.493,2.248-1.938c0.899-0.444,1.906-0.667,3.022-0.667C56.982,113.87,58.351,114.227,59.54,114.939z
			 M57.292,125.635c0.764-0.857,1.147-1.969,1.147-3.333c0-1.343-0.383-2.443-1.147-3.301c-0.765-0.857-1.757-1.287-2.976-1.287
			c-1.22,0-2.216,0.43-2.991,1.287c-0.775,0.857-1.163,1.958-1.163,3.301c0,1.385,0.387,2.501,1.163,3.349
			c0.775,0.848,1.771,1.271,2.991,1.271C55.535,126.921,56.527,126.492,57.292,125.635z"/>
		<path fill="#FFFFFF" d="M80.743,114.939c1.188,0.713,2.108,1.721,2.759,3.022c0.651,1.302,0.977,2.801,0.977,4.495
			c0,1.674-0.321,3.146-0.961,4.418c-0.641,1.271-1.545,2.258-2.712,2.96c-1.168,0.703-2.526,1.054-4.077,1.054
			c-1.158,0-2.186-0.222-3.084-0.666s-1.659-1.09-2.278-1.938v8.432h-4.774v-22.691h4.774v2.449
			c0.599-0.848,1.348-1.493,2.248-1.938c0.899-0.444,1.906-0.667,3.022-0.667C78.186,113.87,79.554,114.227,80.743,114.939z
			 M78.496,125.635c0.764-0.857,1.147-1.969,1.147-3.333c0-1.343-0.383-2.443-1.147-3.301c-0.765-0.857-1.757-1.287-2.976-1.287
			c-1.22,0-2.216,0.43-2.991,1.287c-0.775,0.857-1.163,1.958-1.163,3.301c0,1.385,0.387,2.501,1.163,3.349
			c0.775,0.848,1.771,1.271,2.991,1.271C76.739,126.921,77.731,126.492,78.496,125.635z"/>
		<path fill="#FFFFFF" d="M87.795,107.701h4.774v23.002h-4.774V107.701z"/>
		<path fill="#FFFFFF" d="M101.574,107.36c0.485,0.496,0.729,1.137,0.729,1.922s-0.243,1.426-0.729,1.922s-1.111,0.744-1.875,0.744
			c-0.744,0-1.359-0.253-1.845-0.76c-0.485-0.506-0.729-1.142-0.729-1.906c0-0.785,0.243-1.426,0.729-1.922s1.101-0.744,1.845-0.744
			C100.463,106.616,101.089,106.864,101.574,107.36z M97.343,114.025h4.774v16.678h-4.774V114.025z"/>
		<path fill="#FFFFFF" d="M114.113,117.931c-1.199,0-2.176,0.409-2.93,1.225c-0.755,0.817-1.132,1.896-1.132,3.24
			s0.372,2.434,1.116,3.271s1.694,1.255,2.853,1.255c1.735,0,3.027-0.65,3.875-1.953l3.286,2.232
			c-0.703,1.178-1.69,2.088-2.961,2.728c-1.271,0.642-2.754,0.961-4.448,0.961c-1.674,0-3.152-0.351-4.434-1.054
			c-1.281-0.702-2.278-1.694-2.991-2.976s-1.069-2.759-1.069-4.434c0-1.694,0.356-3.188,1.069-4.479
			c0.713-1.291,1.715-2.294,3.007-3.007s2.785-1.069,4.479-1.069c1.592,0,3.007,0.305,4.247,0.914
			c1.24,0.61,2.232,1.473,2.977,2.589l-3.225,2.325C116.883,118.521,115.643,117.931,114.113,117.931z"/>
		<path fill="#FFFFFF" d="M133.396,130.703v-1.953c-0.558,0.703-1.281,1.24-2.17,1.612s-1.912,0.558-3.069,0.558
			c-1.757,0-3.151-0.48-4.185-1.441s-1.55-2.217-1.55-3.767c0-1.57,0.553-2.795,1.658-3.673c1.105-0.879,2.671-1.328,4.696-1.349
			h4.588v-0.311c0-0.888-0.294-1.575-0.883-2.062c-0.589-0.485-1.452-0.729-2.589-0.729c-1.55,0-3.203,0.486-4.96,1.457
			l-1.488-3.286c1.322-0.661,2.562-1.146,3.721-1.457c1.157-0.31,2.428-0.465,3.812-0.465c2.232,0,3.963,0.527,5.192,1.581
			c1.229,1.055,1.854,2.521,1.876,4.402l0.031,10.881H133.396z M132.062,126.797c0.724-0.475,1.157-1.074,1.302-1.798v-1.488h-3.751
			c-0.93,0-1.617,0.15-2.062,0.45s-0.666,0.78-0.666,1.441c0,0.641,0.232,1.152,0.697,1.534c0.465,0.383,1.101,0.573,1.906,0.573
			C130.481,127.51,131.339,127.272,132.062,126.797z"/>
		<path fill="#FFFFFF" d="M157.188,115.575c1.105,1.157,1.659,2.708,1.659,4.65v10.478h-4.774v-9.083
			c0-1.054-0.295-1.886-0.884-2.495s-1.39-0.915-2.402-0.915c-1.178,0.021-2.107,0.43-2.79,1.225
			c-0.682,0.796-1.022,1.813-1.022,3.054v8.215h-4.774v-16.678h4.774v2.914c1.157-2.025,3.079-3.059,5.766-3.101
			C154.6,113.839,156.082,114.418,157.188,115.575z"/>
		<path fill="#FFFFFF" d="M173.292,129.773c-0.62,0.372-1.308,0.656-2.062,0.853c-0.755,0.196-1.515,0.294-2.278,0.294
			c-1.551,0-2.812-0.444-3.782-1.333c-0.972-0.888-1.457-2.159-1.457-3.812v-7.72h-2.325v-3.285h2.325v-4.589h4.743v4.589h4.525
			v3.316h-4.525v6.882c0,1.282,0.506,1.922,1.519,1.922c0.702,0,1.478-0.206,2.325-0.619L173.292,129.773z"/>
	</g>
</g>
</svg>
