<?xml version="1.0" encoding="utf-8"?>
<!-- Generator: Adobe Illustrator 16.0.0, SVG Export Plug-In . SVG Version: 6.00 Build 0)  -->
<!DOCTYPE svg PUBLIC "-//W3C//DTD SVG 1.1//EN" "http://www.w3.org/Graphics/SVG/1.1/DTD/svg11.dtd">
<svg version="1.1" id="Layer_1" xmlns="http://www.w3.org/2000/svg" xmlns:xlink="http://www.w3.org/1999/xlink" x="0px" y="0px"
	 width="200px" height="200px" viewBox="0 0 200 200" enable-background="new 0 0 200 200" xml:space="preserve">
<rect x="-1.517" y="-0.898" fill="#3955A4" width="204.398" height="204.398"/>
<polygon fill="#FFFFFF" points="111.169,9.91 -29.284,77.876 -21.618,19.529 125.081,-28.91 "/>
<polygon fill="#1C1E52" points="184.779,215.826 74.866,158.722 127.515,116.805 216.083,206.252 "/>
<polygon fill="#E46398" points="195.307,222.816 76.37,188.238 119.835,136.859 224.143,207.322 "/>
<g>
	<g>
		<g>
			<g>
				<path fill="#1C1E52" d="M95.666,60.898c-8.83,2.178-15.522,8.166-19.635,16.148c-1.681,3.261-2.946,6.737-4.346,10.125
					c1.073-2.596-0.678,1.279-1.038,1.929c-0.311,0.562-1.6,2.31,0.205-0.016c-0.572,0.736-2.486,1.961-0.032,0.295
					c-1.632,1.108,2.306-0.704,0.354-0.163c2.494-0.691,1.271-0.145,0.182-0.188c2.671,0.106,0.372-0.044-0.345-0.248
					c-2.689-0.766,1.695,0.911-1.228-0.47c-4.76-2.248-8.796-5.506-13.746-7.432c-7.95-3.093-16.146-1.056-21.187,5.866
					c-6.966,9.567-3.844,24.126-4.022,35.119c-0.016,0.986-0.49,4.62,0.098,0.675c-0.35,2.345-0.074,0.377,0.285-0.216
					c2.274-3.758,5.619-4.482,9.684-3.919c-1.314-0.183,2.424,1.183,0.661,0.29c-0.549-0.277-1.062-0.628-1.574-0.967
					c-1.232-0.817,1.331,1.166-0.821-0.665c-5.992-5.1-11.02-11.36-16.33-17.137C17.875,94.536,12.6,88.833,5.647,86.12
					c-8.545-3.333-16.662,3.344-17.817,11.758c-0.741,5.396,1.215,10.714,6.984,12.301c4.724,1.3,11.558-1.573,12.301-6.984
					c0.096-0.697,0.215-1.371,0.379-2.056c0.489-2.037-1.113,2.007-0.188,0.482c-1.429,2.355-3.772,3.412-6.422,3.672
					c1.646-0.161-2.734-0.604-1.005-0.063c-3.139-0.98,0.067,0.262,1.068,0.989c-2.191-1.594-0.168-0.061,0.218,0.275
					c0.825,0.718,1.611,1.479,2.396,2.24c5.782,5.603,10.886,11.876,16.464,17.676c4.789,4.979,11.243,11.693,18.704,11.672
					c8.774-0.024,11.78-8.396,12.083-15.682c0.23-5.53-0.35-11.084-0.307-16.619c0.011-1.391,0.074-2.78,0.17-4.169
					c0.046-0.66,0.12-1.318,0.196-1.976c-0.344,2.982-0.08,0.835,0.048,0.189c0.187-0.941,1.602-4.453,0.186-1.316
					c0.204-0.452,0.468-0.871,0.735-1.287c-1.124,1.37-1.349,1.688-0.676,0.953c0.748-0.673,0.424-0.43-0.97,0.73
					c1.475-0.993-2.461,0.806-0.701,0.311c-2.576,0.725-1.773,0.164-0.621,0.183c-3.998-0.062,2.6,1.114,0.206,0.081
					c4.391,1.895,8.086,5.057,12.499,6.954c8.034,3.455,17.839,3.978,23.775-3.671c1.806-2.326,3.164-4.53,4.33-7.223
					c0.732-1.692,1.435-3.399,2.129-5.108c1.078-2.653-0.399,0.786,0.806-1.872c0.544-1.201,1.162-2.363,1.817-3.507
					c0.27-0.456,0.551-0.904,0.846-1.345c1.434-2.208-1.341,1.501,0.392-0.499c0.36-0.4,0.737-0.785,1.131-1.154
					c1.883-1.842-1.652,1.033,0.598-0.468c0.235-0.156,2.735-1.37,0.786-0.573c0.901-0.368,1.854-0.599,2.796-0.831
					C113.5,77.096,108.188,57.809,95.666,60.898L95.666,60.898z"/>
			</g>
		</g>
		<g>
			<g>
				<path fill="#1C1E52" d="M189.058,39.266c-1.065,3.34-2.072,6.7-3.358,9.964c0.851-2.158-1.021,1.812-1.434,2.483
					c-1.301,2.112,1.395-1.542-0.196,0.297c-1.769,2.042,0.612-0.138-0.696,0.756c-0.443,0.303-2.591,1.213-0.299,0.313
					c-0.761,0.299-1.567,0.469-2.364,0.641c2.295-0.497-0.635-0.025-1.022-0.015c-1.067,0.03-2.137-0.068-3.199-0.159
					c-4.359-0.37-10.904-3.291-15.981-4.812c-19.6-5.874-24.386,17.816-26.099,31.481c-0.204,1.63-0.388,3.263-0.577,4.895
					c-0.091,0.78-0.186,1.56-0.281,2.339c-0.317,2.594,0.32-2.206-0.036,0.275c-0.187,1.293-0.418,2.576-0.696,3.852
					c-0.118,0.543-0.269,1.077-0.423,1.609c-0.716,2.47,0.821-1.552,0.148-0.286c0.987-1.858,5.054-4.068,8.456-3.185
					c2.427,0.63,1.036,0.428,0.173-0.101c-2.01-1.229,1.659,1.446-0.286-0.211c-3.037-2.588-5.57-5.807-8.113-8.862
					c-5.689-6.839-11.361-13.902-19.1-18.546c-9.519-5.711-19.745-3.732-27.962,3.076c-0.274,0.252-0.548,0.504-0.822,0.756
					c-9.51,8.75,4.67,22.856,14.143,14.143c2.408-2.216-1.203,0.591,1.248-1.006c2.323-1.514-1.59,0.357,0.842-0.421
					c2.466-0.789-1.979-0.009,0.525-0.056c2.54-0.047-2.013-0.506,0.477,0.122c2.526,0.638-1.729-0.954,0.693,0.238
					c0.793,0.391,1.535,0.882,2.274,1.363c2.465,1.604-1.39-1.233,0.957,0.725c1.02,0.851,1.971,1.782,2.917,2.712
					c5.971,5.869,10.634,12.921,16.59,18.8c5.746,5.671,15.679,10.699,22.285,3.181c4.713-5.364,5.09-12.979,5.897-19.728
					c0.194-1.618,0.377-3.238,0.57-4.856c0.1-0.83,0.205-1.659,0.312-2.488c-0.325,2.516,0.058-0.264,0.116-0.65
					c0.51-3.325,1.202-6.631,2.342-9.801c-0.945,2.63,0.529-0.884,1.024-1.622c-1.493,2.228-0.666,0.896-0.075,0.34
					c-2.043,1.925,0.499,0.17-2.162,1.229c1.826-0.728-2.567,0.093-0.51-0.013c2.106-0.107-2.413-0.549-0.165-0.02
					c3.219,0.76,6.335,2.3,9.512,3.267c9.327,2.84,20.845,4.16,29.361-1.657c7.166-4.895,10.334-12.761,12.907-20.72
					c0.466-1.439,0.912-2.885,1.372-4.326C212.273,32.26,192.961,27.027,189.058,39.266L189.058,39.266z"/>
			</g>
		</g>
	</g>
</g>
<g display="none">
	<path display="inline" fill="#1C1E52" d="M23.462,84.829c1.125,1.151,2.626,1.727,4.506,1.727c1.826,0,3.282-0.569,4.367-1.707
		c1.085-1.138,1.628-2.713,1.628-4.725V63.806h6.273v16.318c0,2.436-0.497,4.546-1.489,6.333c-0.993,1.787-2.416,3.163-4.269,4.129
		c-1.853,0.967-4.037,1.449-6.551,1.449c-2.515,0-4.712-0.482-6.591-1.449c-1.88-0.966-3.322-2.342-4.328-4.129
		s-1.509-3.897-1.509-6.333V63.806h6.273v16.318C21.775,82.109,22.337,83.678,23.462,84.829z"/>
	<path display="inline" fill="#1C1E52" d="M45.954,62.138h6.114v29.46h-6.114V62.138z"/>
	<path display="inline" fill="#1C1E52" d="M71.404,90.408c-0.794,0.476-1.675,0.84-2.641,1.092
		c-0.966,0.251-1.938,0.377-2.918,0.377c-1.985,0-3.601-0.569-4.845-1.707c-1.244-1.138-1.865-2.766-1.865-4.884v-9.886h-2.979
		v-4.208h2.979v-5.876h6.074v5.876h5.797v4.248H65.21v8.814c0,1.642,0.648,2.461,1.945,2.461c0.9,0,1.893-0.264,2.979-0.794
		L71.404,90.408z"/>
	<path display="inline" fill="#1C1E52" d="M80.517,61.702c0.621,0.635,0.932,1.456,0.932,2.461c0,1.006-0.311,1.827-0.932,2.462
		c-0.623,0.635-1.424,0.953-2.402,0.953c-0.953,0-1.741-0.324-2.363-0.973c-0.621-0.648-0.933-1.462-0.933-2.442
		c0-1.005,0.312-1.826,0.933-2.461c0.622-0.635,1.41-0.953,2.363-0.953C79.093,60.749,79.894,61.066,80.517,61.702z M75.097,70.238
		h6.114v21.361h-6.114V70.238z"/>
	<path display="inline" fill="#1C1E52" d="M120.974,72.203c1.39,1.469,2.085,3.461,2.085,5.976v13.42h-6.075V79.965
		c0-1.376-0.371-2.448-1.111-3.216c-0.741-0.768-1.747-1.151-3.018-1.151c-1.456,0.026-2.607,0.542-3.454,1.548
		c-0.848,1.006-1.271,2.303-1.271,3.891v10.561h-6.075V79.965c0-1.35-0.364-2.415-1.092-3.196c-0.729-0.78-1.727-1.171-2.997-1.171
		c-1.456,0.026-2.614,0.542-3.475,1.548c-0.86,1.006-1.29,2.303-1.29,3.891v10.561h-6.114V70.238h6.114v3.692
		c1.481-2.567,3.891-3.877,7.226-3.931c1.8,0,3.322,0.431,4.566,1.291c1.244,0.86,2.13,2.071,2.66,3.633
		c0.688-1.614,1.688-2.832,2.997-3.653c1.311-0.82,2.879-1.244,4.705-1.271C117.711,70,119.584,70.734,120.974,72.203z"/>
	<path display="inline" fill="#1C1E52" d="M140.727,91.599v-2.501c-0.715,0.9-1.642,1.588-2.779,2.065
		c-1.139,0.476-2.449,0.714-3.931,0.714c-2.251,0-4.037-0.615-5.36-1.846c-1.324-1.231-1.985-2.839-1.985-4.824
		c0-2.011,0.708-3.579,2.124-4.705c1.416-1.125,3.421-1.701,6.016-1.727h5.876v-0.397c0-1.138-0.377-2.018-1.132-2.641
		c-0.754-0.622-1.859-0.933-3.315-0.933c-1.985,0-4.103,0.623-6.353,1.866l-1.905-4.208c1.693-0.847,3.281-1.469,4.765-1.866
		c1.481-0.397,3.109-0.596,4.883-0.596c2.859,0,5.075,0.675,6.65,2.025c1.575,1.35,2.376,3.23,2.402,5.638l0.04,13.936H140.727z
		 M139.019,86.596c0.927-0.608,1.482-1.376,1.668-2.303v-1.906h-4.805c-1.19,0-2.071,0.192-2.64,0.576
		c-0.569,0.384-0.854,1-0.854,1.846c0,0.821,0.298,1.476,0.893,1.965c0.596,0.49,1.41,0.735,2.442,0.735
		C136.994,87.509,138.092,87.205,139.019,86.596z"/>
	<path display="inline" fill="#1C1E52" d="M165.223,90.408c-0.794,0.476-1.674,0.84-2.64,1.092
		c-0.967,0.251-1.939,0.377-2.919,0.377c-1.984,0-3.6-0.569-4.844-1.707c-1.244-1.138-1.866-2.766-1.866-4.884v-9.886h-2.978v-4.208
		h2.978v-5.876h6.075v5.876h5.797v4.248h-5.797v8.814c0,1.642,0.648,2.461,1.945,2.461c0.899,0,1.893-0.264,2.978-0.794
		L165.223,90.408z"/>
	<path display="inline" fill="#1C1E52" d="M185.77,73.017c1.787,1.985,2.68,4.751,2.68,8.298c0,0.635-0.014,1.125-0.039,1.469
		h-15.326c0.344,1.35,1.006,2.402,1.985,3.157c0.979,0.754,2.157,1.131,3.534,1.131c1.005,0,1.971-0.191,2.897-0.576
		c0.927-0.383,1.761-0.946,2.502-1.688l3.216,3.256c-1.086,1.218-2.402,2.151-3.95,2.799c-1.549,0.649-3.276,0.973-5.182,0.973
		c-2.25,0-4.216-0.45-5.896-1.35c-1.681-0.899-2.978-2.17-3.891-3.812c-0.913-1.641-1.37-3.534-1.37-5.678
		c0-2.17,0.463-4.083,1.39-5.737c0.927-1.654,2.224-2.938,3.892-3.851c1.667-0.913,3.573-1.37,5.717-1.37
		C181.369,70.04,183.983,71.032,185.77,73.017z M182.692,79.171c-0.053-1.403-0.503-2.527-1.35-3.375
		c-0.848-0.847-1.973-1.271-3.375-1.271c-1.324,0-2.429,0.417-3.315,1.25c-0.887,0.834-1.449,1.966-1.688,3.395H182.692z"/>
</g>
<g display="none">
	<path display="inline" fill="#FFFFFF" d="M53.221,128.285l-2.108-5.032H39.484l-2.108,5.032H32.65l10.438-23.8h4.726l10.302,23.8
		H53.221z M41.117,119.343h8.364l-4.148-9.996L41.117,119.343z"/>
	<path display="inline" fill="#FFFFFF" d="M76.052,111.132c1.303,0.782,2.312,1.876,3.025,3.281
		c0.715,1.405,1.071,3.025,1.071,4.862c0,1.813-0.352,3.411-1.054,4.794c-0.703,1.383-1.7,2.459-2.992,3.229
		s-2.788,1.156-4.488,1.156c-1.359,0-2.562-0.267-3.604-0.799c-1.043-0.532-1.904-1.31-2.584-2.329v9.554h-4.42v-24.786h4.42v2.992
		c0.656-1.02,1.501-1.796,2.533-2.329c1.031-0.532,2.227-0.799,3.586-0.799C73.247,109.959,74.748,110.35,76.052,111.132z
		 M74.232,123.1c0.952-1.031,1.429-2.351,1.429-3.961c0-1.609-0.477-2.924-1.429-3.943c-0.952-1.021-2.176-1.53-3.672-1.53
		c-1.519,0-2.754,0.51-3.706,1.53c-0.952,1.02-1.428,2.334-1.428,3.943c0,1.632,0.476,2.958,1.428,3.979
		c0.952,1.02,2.188,1.529,3.706,1.529C72.057,124.646,73.28,124.132,74.232,123.1z"/>
	<path display="inline" fill="#FFFFFF" d="M84.16,103.057h4.421v25.229H84.16V103.057z"/>
	<path display="inline" fill="#FFFFFF" d="M98.235,103.022c0.477,0.499,0.715,1.134,0.715,1.904c0,0.748-0.238,1.372-0.715,1.87
		c-0.476,0.499-1.076,0.748-1.801,0.748c-0.727,0-1.326-0.249-1.803-0.748c-0.477-0.498-0.714-1.122-0.714-1.87
		c0-0.771,0.237-1.405,0.714-1.904c0.477-0.498,1.076-0.747,1.803-0.747C97.159,102.275,97.76,102.524,98.235,103.022z
		 M94.258,110.095h4.42v18.19h-4.42V110.095z"/>
	<path display="inline" fill="#FFFFFF" d="M111.903,113.835c-1.474,0-2.669,0.499-3.587,1.496s-1.377,2.289-1.377,3.876
		c0,1.632,0.459,2.946,1.377,3.944c0.918,0.997,2.113,1.495,3.587,1.495c2.176,0,3.809-0.714,4.896-2.142l2.754,2.278
		c-0.816,1.179-1.894,2.085-3.23,2.72c-1.338,0.635-2.89,0.952-4.658,0.952c-1.791,0-3.383-0.386-4.776-1.156
		s-2.478-1.853-3.247-3.247c-0.771-1.394-1.156-2.997-1.156-4.811c0-1.836,0.391-3.457,1.174-4.862
		c0.781-1.405,1.869-2.493,3.264-3.264c1.394-0.771,2.997-1.156,4.811-1.156c1.654,0,3.134,0.289,4.438,0.867
		c1.303,0.578,2.362,1.399,3.179,2.465l-2.687,2.55C115.439,114.504,113.853,113.835,111.903,113.835z"/>
	<path display="inline" fill="#FFFFFF" d="M133.426,128.285v-2.21c-0.635,0.793-1.451,1.394-2.448,1.802s-2.142,0.612-3.434,0.612
		c-1.27,0-2.386-0.244-3.35-0.731c-0.963-0.487-1.705-1.161-2.227-2.022s-0.782-1.825-0.782-2.891c0-1.7,0.601-3.031,1.802-3.995
		c1.201-0.963,2.901-1.456,5.101-1.479h5.304v-0.477c0-1.064-0.352-1.892-1.054-2.481c-0.703-0.589-1.723-0.884-3.061-0.884
		c-1.723,0-3.524,0.566-5.405,1.699l-1.599-3.06c1.429-0.793,2.726-1.365,3.894-1.717c1.167-0.352,2.533-0.527,4.097-0.527
		c2.357,0,4.188,0.567,5.491,1.7c1.303,1.134,1.966,2.72,1.989,4.76l0.033,11.9H133.426z M131.861,124.188
		c0.906-0.6,1.417-1.343,1.53-2.227v-1.632h-4.59c-1.179,0-2.046,0.176-2.601,0.526c-0.556,0.353-0.833,0.924-0.833,1.718
		c0,0.771,0.288,1.383,0.866,1.836s1.365,0.68,2.363,0.68C129.867,125.089,130.955,124.789,131.861,124.188z"/>
	<path display="inline" fill="#FFFFFF" d="M158.619,111.812c1.201,1.259,1.802,2.964,1.802,5.117v11.356h-4.453v-10.064
		c0-1.269-0.363-2.271-1.089-3.009c-0.726-0.736-1.711-1.105-2.958-1.105c-1.474,0.023-2.635,0.522-3.484,1.496
		c-0.851,0.976-1.275,2.222-1.275,3.74v8.942h-4.42v-18.19h4.42v3.4c1.246-2.335,3.423-3.524,6.528-3.57
		C155.774,109.925,157.418,110.554,158.619,111.812z"/>
	<path display="inline" fill="#FFFFFF" d="M176.027,127.163c-1.451,0.884-2.97,1.326-4.557,1.326c-1.563,0-2.845-0.459-3.842-1.377
		c-0.998-0.918-1.496-2.272-1.496-4.063v-8.976h-2.55l-0.034-3.23h2.584v-4.998h4.386v4.998h5.202v3.23h-5.202v8.193
		c0,0.839,0.158,1.435,0.477,1.785c0.317,0.352,0.793,0.527,1.428,0.527c0.68,0,1.541-0.249,2.584-0.748L176.027,127.163z"/>
</g>
<g>
	<g>
		<g>
			<path fill="#E46398" d="M99.738,71.494c-2.441,7.657-4.59,15.571-9.114,22.318c-6.179,9.217-15.588,6.669-23.632,1.331
				c-4.49-2.979-9.274-6.379-13.564-0.978c-3.694,4.651-4.748,11.365-5.983,17.004c-1.014,4.628-1.405,12.427-4.884,16.015
				c-1.306,1.348-11.549-9.754-12.501-10.776c-5.357-5.748-10.372-11.877-16.23-17.135c-3.059-2.745-8.167-6.878-12.266-3.699
				c-1.792,1.39-2.383,3.781-2.676,5.915c-0.433,3.152,4.384,4.512,4.821,1.33c0.255-1.86,0.209-3.76,1.989-3.204
				c2.666,0.833,5.059,3.561,6.992,5.434c5.782,5.603,10.886,11.876,16.465,17.676c3.181,3.308,8.512,9.665,13.667,9.487
				c4.74-0.163,6.332-6.727,7.299-10.304c1.753-6.482,2.673-13.165,4.754-19.563c0.641-1.97,1.519-4.682,3.321-5.921
				c2.2-1.514,7.286,3.723,8.824,4.673c6.822,4.217,15.294,5.991,22.256,1.199c6.191-4.262,9.32-11.986,11.797-18.775
				c1.284-3.523,2.348-7.125,3.487-10.696C105.542,69.743,100.714,68.435,99.738,71.494L99.738,71.494z"/>
		</g>
	</g>
	<g>
		<g>
			<path fill="#E46398" d="M200.115,42.877c-2.44,7.657-4.59,15.571-9.113,22.318c-6.18,9.217-15.589,6.668-23.632,1.33
				c-4.49-2.98-9.274-6.379-13.565-0.978c-3.694,4.651-4.748,11.365-5.983,17.004c-1.013,4.627-1.404,12.427-4.883,16.014
				c-1.306,1.348-11.548-9.753-12.501-10.775c-5.356-5.748-10.371-11.876-16.229-17.134c-3.06-2.745-8.167-6.877-12.267-3.699
				c-1.793,1.39-2.384,3.781-2.677,5.915c-0.433,3.152,4.384,4.512,4.822,1.33c0.255-1.861,0.209-3.76,1.99-3.204
				c2.666,0.833,5.059,3.561,6.992,5.434c5.782,5.603,10.886,11.875,16.465,17.675c3.181,3.308,8.511,9.663,13.666,9.486
				c4.739-0.162,6.331-6.727,7.299-10.304c1.753-6.481,2.673-13.164,4.754-19.562c0.641-1.97,1.519-4.682,3.321-5.921
				c2.2-1.514,7.286,3.723,8.824,4.673c6.822,4.218,15.295,5.991,22.256,1.2c6.191-4.262,9.32-11.986,11.797-18.775
				c1.285-3.523,2.348-7.125,3.487-10.696C205.919,41.126,201.091,39.817,200.115,42.877L200.115,42.877z"/>
		</g>
	</g>
</g>
</svg>
