<?xml version="1.0" encoding="utf-8"?>
<!-- Generator: Adobe Illustrator 16.0.0, SVG Export Plug-In . SVG Version: 6.00 Build 0)  -->
<!DOCTYPE svg PUBLIC "-//W3C//DTD SVG 1.1//EN" "http://www.w3.org/Graphics/SVG/1.1/DTD/svg11.dtd">
<svg version="1.1" id="Layer_3" xmlns="http://www.w3.org/2000/svg" xmlns:xlink="http://www.w3.org/1999/xlink" x="0px" y="0px"
	 width="228.166px" height="153px" viewBox="0 0 228.166 153" enable-background="new 0 0 228.166 153" xml:space="preserve">
<g>
	<g>
		<g>
			<path fill="#838484" d="M0,32.193c5.424-3.494,9.979-6.234,14.615-9.065c2.325-1.401,4.67-2.824,7.192-4.26
				c2.519-1.432,5.221-2.895,8.25-4.129c1.63-0.659,4.129-1.558,7.085-1.802c1.473-0.118,3.045-0.06,4.64,0.3l0.655,0.172
				c0.363,0.089,0.712,0.236,1.074,0.344c0.703,0.285,1.41,0.585,2.092,0.988c1.371,0.782,2.706,1.794,3.951,3.054
				c2.503,2.503,4.688,5.815,6.541,9.51c3.708,7.436,6.229,16.252,8.207,25.448c1.958,9.229,3.34,18.942,4.419,28.86
				c1.077,9.923,1.835,20.059,2.495,30.258c0.331,5.121,0.662,10.245,0.993,15.357c0.177,2.57,0.369,5.147,0.604,7.747
				c0.251,2.618,0.495,5.195,1.019,8.039c0.129,0.708,0.302,1.469,0.53,2.294l0.203,0.657l0.276,0.743
				c0.104,0.261,0.268,0.597,0.411,0.884c0.092,0.172,0.226,0.389,0.345,0.576c0.128,0.194,0.226,0.357,0.483,0.657
				c0.241,0.276,0.428,0.488,0.76,0.773c0.413,0.337,0.878,0.632,1.36,0.86c0.644,0.274,1.391,0.449,2.08,0.476
				c0.656,0.011,1.392-0.104,1.977-0.301c0.436-0.161,0.867-0.371,1.264-0.617c0.235-0.143,0.273-0.191,0.415-0.295l0.345-0.284
				l0.33-0.299l0.215-0.23l0.392-0.455c0.846-1.102,1.164-1.825,1.55-2.584c0.336-0.72,0.624-1.405,0.879-2.065l0.209-0.544
				l0.16-0.43l0.131-0.518l0.224-0.907c0.254-1.091,0.616-2.262,0.94-3.395c1.4-4.602,3.04-9.218,4.72-13.745
				c3.376-9.065,6.976-17.844,10.554-26.215c7.186-16.734,14.367-31.869,21.044-44.276c3.355-6.179,6.591-11.701,9.688-16.193
				c1.55-2.227,3.08-4.186,4.484-5.678c0.341-0.328,0.674-0.648,1-0.962c0.41-0.334,0.812-0.662,1.203-0.981
				c0.771-0.662,1.599-1.198,2.337-1.755c3.042-2.138,5.692-3.463,7.492-4.329c0.906-0.425,1.598-0.757,2.081-0.942
				c0.478-0.198,0.723-0.3,0.723-0.3s0.323-0.134,0.95-0.395c0.64-0.229,1.582-0.595,2.832-1.015
				c2.495-0.843,6.263-1.905,11.149-2.491c4.84-0.546,10.974-0.67,17.161,1.368c3.059,1.031,6.108,2.573,8.673,4.888
				c2.543,2.324,4.675,5.345,5.943,9.098c0.153,0.47,0.347,0.924,0.477,1.413c0.124,0.492,0.248,0.987,0.374,1.484l0.189,0.746
				l0.123,0.714c0.101,0.479,0.139,0.954,0.189,1.432c0.192,1.912,0.028,3.807-0.484,5.659c-0.488,1.859-1.419,3.661-2.638,5.4
				c-1.242,1.732-2.835,3.369-4.649,4.896c-3.678,3.03-8.235,5.584-13.207,7.682c-4.978,2.105-10.369,3.802-15.987,5.167
				c-5.62,1.365-11.479,2.389-17.471,3.093c-5.991,0.703-12.128,1.081-18.286,1.031c-3.073-0.037-6.159-0.166-9.19-0.479
				c-1.517-0.15-3.021-0.346-4.486-0.601c-0.736-0.123-1.461-0.265-2.17-0.423l-0.531-0.119l-0.133-0.03l-0.066-0.015
				c-2.738,19.333-0.734,5.362-1.334,9.679l0.176,0.019c0.233,0.014,0.469,0.039,0.708,0.094c1.896,0.31,4.08,1.636,6.142,3.489
				c2.072,1.857,4.033,4.192,5.908,6.692l0,0c2.054,2.734,4.011,5.71,6.113,8.811l1.637,2.36l1.681,2.303
				c1.052,1.406,2.055,2.884,3.063,4.383c4.016,6.02,7.868,12.602,12.524,18.881c2.321,3.144,4.892,6.218,7.85,9.028
				c2.928,2.798,6.394,5.361,10.065,7.175c0.91,0.438,1.818,0.875,2.723,1.311c0.23,0.103,0.445,0.229,0.688,0.311l0.461,0.167
				l0.394,0.142c0.525,0.188,1.047,0.375,1.564,0.561c0.52,0.183,1.034,0.365,1.545,0.545c0.51,0.182,1.049,0.272,1.564,0.409
				c1.042,0.246,2.064,0.487,3.064,0.723c1.019,0.131,2.013,0.26,2.979,0.385c0.484,0.057,0.961,0.113,1.431,0.168
				c0.471,0.012,0.934,0.024,1.389,0.036c0.91,0.019,1.788,0.036,2.63,0.053c1.669-0.087,3.192-0.212,4.534-0.335
				c1.318-0.217,2.466-0.407,3.411-0.562c4.025-0.852,7.479-2.002,10.447-3.41c1.515-0.66,2.891-1.408,4.213-2.16
				c1.342-0.726,2.552-1.552,3.761-2.347c4.78-3.253,8.769-6.912,13.438-11.352c-6.215,1.738-11.363,3.286-16.577,4.922
				c-1.308,0.388-2.606,0.854-3.946,1.236c-1.333,0.413-2.686,0.862-4.09,1.247c-2.795,0.878-5.777,1.613-9.082,2.287
				c-0.764,0.121-1.69,0.268-2.756,0.437c-1.062,0.082-2.26,0.173-3.566,0.247c-0.648-0.018-1.325-0.036-2.026-0.055
				c-0.351-0.007-0.707-0.014-1.069-0.021c-0.358-0.046-0.721-0.093-1.09-0.141c-0.737-0.093-1.495-0.189-2.271-0.287
				c-0.761-0.185-1.54-0.374-2.333-0.565c-0.395-0.106-0.805-0.161-1.197-0.307c-0.394-0.143-0.79-0.287-1.189-0.432
				c-0.399-0.143-0.803-0.286-1.208-0.431l-0.306-0.107l-0.356-0.125c-0.188-0.058-0.361-0.168-0.543-0.25
				c-0.722-0.349-1.444-0.7-2.17-1.051c-5.591-2.745-10.265-7.597-14.491-13.315c-4.242-5.706-7.997-12.098-12.237-18.471
				c-1.069-1.59-2.155-3.188-3.322-4.75l-1.592-2.181l-1.516-2.186c-2.031-2.991-4.089-6.128-6.375-9.174h-0.001
				c-2.103-2.792-4.386-5.571-7.218-8.12c-1.42-1.269-2.988-2.479-4.788-3.519c-1.788-1.041-3.857-1.896-6.125-2.309
				c-0.562-0.114-1.137-0.184-1.719-0.226l-0.434-0.036c-0.644,4.313,1.287-9.667-1.471,9.668l0.083,0.019l0.165,0.038l0.662,0.149
				c0.882,0.196,1.757,0.367,2.625,0.511c1.738,0.301,3.455,0.523,5.158,0.692c3.409,0.35,6.766,0.488,10.09,0.527
				c6.645,0.052,13.152-0.354,19.521-1.102c6.366-0.75,12.593-1.838,18.638-3.308c6.043-1.472,11.91-3.308,17.504-5.674
				c5.584-2.37,10.924-5.291,15.642-9.174c2.339-1.966,4.521-4.178,6.348-6.726c1.805-2.555,3.289-5.421,4.106-8.482
				c0.849-3.045,1.092-6.205,0.798-9.159c-0.074-0.738-0.147-1.475-0.288-2.184l-0.19-1.069l-0.247-1.002
				c-0.169-0.664-0.337-1.324-0.505-1.98c-0.178-0.655-0.433-1.296-0.646-1.938c-0.864-2.57-2.121-4.992-3.557-7.215
				c-0.762-1.09-1.505-2.174-2.39-3.131c-0.818-1.014-1.766-1.88-2.683-2.752c-3.77-3.394-8.077-5.534-12.15-6.897
				c-4.099-1.359-8.028-1.922-11.609-2.123c-3.587-0.188-6.842,0.01-9.74,0.34c-5.798,0.698-10.173,1.947-13.089,2.928
				c-1.46,0.49-2.56,0.917-3.306,1.187c-0.733,0.304-1.111,0.46-1.111,0.46s-0.287,0.119-0.845,0.351
				c-0.563,0.218-1.376,0.603-2.44,1.102c-2.116,1.018-5.223,2.568-8.892,5.138c-0.9,0.67-1.883,1.32-2.839,2.129
				c-0.486,0.397-0.983,0.804-1.492,1.22c-0.531,0.507-1.074,1.025-1.629,1.554c-1.998,2.114-3.757,4.416-5.499,6.905
				c-3.435,4.983-6.788,10.729-10.262,17.112c-6.884,12.781-14.154,28.101-21.447,45.064c-3.633,8.489-7.281,17.375-10.741,26.657
				c-1.726,4.649-3.412,9.375-4.925,14.342c-0.364,1.269-0.746,2.495-1.066,3.848l-0.23,0.922c0.003-0.021,0.009-0.041,0.017-0.06
				c0-0.002-0.005,0.007-0.005,0.011l-0.128,0.336c-0.197,0.514-0.401,0.988-0.597,1.412c-0.092,0.176-0.195,0.406-0.265,0.512
				c-0.031,0.047-0.082,0.154-0.092,0.156l-0.016,0.021c-0.069-0.045,0.086,0.071,0.298,0.239c0.189,0.162,0.333,0.254,0.473,0.351
				c0.284,0.204,0.556,0.429,0.811,0.676l0.363,0.369c0.097,0.079,0.188,0.164,0.275,0.256c0.169,0.164,0.336,0.441,0.44,0.583
				c0.099,0.115,0.174,0.26,0.214,0.425c0.031,0.066,0.05,0.109,0.041,0.191c-0.004-0.023,0.014-0.076,0.03-0.083
				c0.042-0.131,0.118-0.245,0.211-0.321c0.112-0.134,0.288-0.337,0.461-0.455c0.152-0.087,0.425-0.319,0.689-0.493
				c0.275-0.186,0.525-0.299,0.854-0.468c0.36-0.21,0.729-0.4,1.106-0.569c0.246-0.11,0.07-0.023,0.126-0.044
				c0.002,0.011-0.001,0.004-0.006-0.012l-0.054-0.147l-0.076-0.251c-0.106-0.396-0.224-0.871-0.32-1.411
				c-0.399-2.148-0.655-4.642-0.885-7.099c-0.224-2.479-0.411-4.998-0.585-7.532c-0.328-5.099-0.657-10.21-0.986-15.318
				c-0.663-10.256-1.429-20.539-2.528-30.68c-1.104-10.142-2.521-20.149-4.576-29.847c-2.1-9.683-4.722-19.112-9.041-27.81
				c-2.184-4.326-4.837-8.492-8.389-12.057c-1.766-1.779-3.804-3.368-6.046-4.641c-1.114-0.647-2.302-1.174-3.501-1.643
				c-0.613-0.201-1.216-0.431-1.836-0.592l-1.124-0.292c-2.735-0.618-5.35-0.692-7.633-0.501c-4.59,0.414-7.886,1.691-9.993,2.549
				c-3.897,1.64-6.96,3.625-9.583,5.644c-2.619,2.027-4.791,4.12-6.741,6.276C6.149,21.976,3.152,26.57,0,32.193z"/>
		</g>
	</g>
</g>
</svg>
