<?xml version="1.0" encoding="utf-8"?>
<!-- Generator: Adobe Illustrator 16.0.0, SVG Export Plug-In . SVG Version: 6.00 Build 0)  -->
<!DOCTYPE svg PUBLIC "-//W3C//DTD SVG 1.1//EN" "http://www.w3.org/Graphics/SVG/1.1/DTD/svg11.dtd">
<svg version="1.1" id="Layer_3" xmlns="http://www.w3.org/2000/svg" xmlns:xlink="http://www.w3.org/1999/xlink" x="0px" y="0px"
	 width="228.166px" height="153px" viewBox="0 0 228.166 153" enable-background="new 0 0 228.166 153" xml:space="preserve">
<g>
	<g>
		<g>
			<path fill="#FFFFFF" d="M0,32.193c6.508-4.188,12.003-7.419,17.613-10.562c2.808-1.554,5.655-3.076,8.69-4.472
				c3.03-1.348,6.287-2.633,9.687-3.13c1.84-0.264,4.509-0.416,7.403,0.727c0.73,0.272,1.467,0.673,2.23,1.122
				c0.754,0.479,1.521,1.05,2.294,1.717l0.534,0.497c0.284,0.248,0.547,0.545,0.824,0.82c0.543,0.568,1.072,1.187,1.591,1.837
				c1.034,1.307,2.01,2.769,2.922,4.344c1.825,3.154,3.398,6.743,4.775,10.562c2.749,7.66,4.726,16.228,6.293,25.165
				c1.561,8.951,2.691,18.312,3.591,27.868c0.899,9.56,1.549,19.311,2.166,29.144c0.313,4.92,0.614,9.854,1.017,14.853
				c0.207,2.506,0.431,5.015,0.78,7.639c0.182,1.32,0.382,2.652,0.728,4.172c0.197,0.792,0.381,1.574,0.836,2.691
				c0.15,0.334,0.285,0.629,0.476,0.984c0.125,0.217,0.257,0.432,0.396,0.641l0.215,0.312c0.117,0.152,0.239,0.301,0.367,0.445
				c0.128,0.146,0.26,0.287,0.396,0.424c0.14,0.137,0.243,0.249,0.519,0.462c0.493,0.378,0.973,0.687,1.592,0.953
				c0.741,0.301,1.596,0.487,2.371,0.507c0.75,0.008,1.574-0.123,2.253-0.348c0.492-0.18,0.979-0.412,1.429-0.687
				c0.262-0.157,0.357-0.237,0.492-0.34l0.384-0.312c0.579-0.492,0.754-0.74,1.058-1.088l0.199-0.246l0.138-0.192l0.27-0.39
				c0.197-0.283,0.296-0.47,0.43-0.694c0.509-0.88,0.815-1.575,1.123-2.276l0.413-1.008l0.187-0.488
				c0.075-0.201,0.212-0.515,0.297-0.809l0.491-1.986c0.585-2.15,1.25-4.365,1.996-6.582c1.466-4.431,3.085-8.846,4.737-13.187
				c3.315-8.688,6.797-17.108,10.27-25.134c6.949-16.049,13.881-30.565,20.307-42.439c3.224-5.918,6.33-11.194,9.271-15.477
				c1.478-2.097,2.91-4.005,4.218-5.402c0.666-0.658,1.121-1.15,1.957-1.794c0.371-0.301,0.734-0.595,1.09-0.882
				c0.371-0.27,0.734-0.533,1.088-0.789c2.838-2.042,5.311-3.338,6.984-4.205c0.855-0.402,1.512-0.71,1.953-0.917
				c0.438-0.214,0.676-0.299,0.676-0.299s0.332-0.138,0.978-0.404c0.637-0.284,1.606-0.644,2.88-1.1
				c2.549-0.862,6.372-2.077,11.339-2.681c2.474-0.309,5.231-0.507,8.165-0.346c2.928,0.154,6.055,0.6,9.098,1.631
				c6.104,1.996,11.784,6.362,14.118,13.845l0.243,0.685l0.18,0.725c0.123,0.483,0.248,0.969,0.373,1.458
				c0.104,0.475,0.161,0.92,0.254,1.384c0.033,0.455,0.108,0.915,0.127,1.368c0.086,1.816-0.092,3.601-0.668,5.339
				c-1.101,3.473-3.769,6.866-7.476,9.764c-3.679,2.924-8.276,5.349-13.22,7.383c-4.959,2.033-10.323,3.658-15.889,4.961
				c-11.131,2.578-23.137,3.984-35.123,3.854c-2.988-0.045-5.977-0.193-8.895-0.505c-1.456-0.16-2.904-0.344-4.301-0.598
				c-0.695-0.128-1.393-0.257-2.059-0.415l-0.505-0.113c-3.31,23.201-0.896,6.435-1.626,11.614l0.037,0.005l0.072,0.009l0.146,0.014
				c0.193,0.002,0.393,0.054,0.593,0.086c1.595,0.277,3.583,1.457,5.506,3.177c1.934,1.719,3.803,3.912,5.594,6.274l0,0
				c1.922,2.535,3.766,5.293,5.706,8.174c0.978,1.445,1.968,2.908,3.118,4.463c1.018,1.389,1.941,2.624,2.878,4.016
				c3.728,5.446,7.264,11.438,11.299,17.264c2.031,2.916,4.21,5.795,6.621,8.549c0.62,0.682,1.239,1.361,1.856,2.039
				c0.666,0.652,1.332,1.305,1.994,1.955c0.646,0.66,1.413,1.246,2.113,1.865l0.908,0.771c1.05,0.776,2.086,1.555,3.146,2.264
				c1.101,0.646,2.184,1.362,3.258,1.894c1.076,0.52,2.133,1.029,3.162,1.524l0.771,0.366c0.271,0.1,0.537,0.197,0.803,0.294
				c0.533,0.19,1.06,0.38,1.578,0.565c2.045,0.82,4.106,1.22,5.974,1.666c0.93,0.248,1.857,0.281,2.721,0.416
				c0.867,0.104,1.691,0.221,2.467,0.289c1.553,0.031,2.908,0.06,4.039,0.082c5.179-0.17,9.588-1.271,13.422-2.623
				c0.939-0.375,1.861-0.74,2.77-1.102c0.898-0.373,1.73-0.816,2.569-1.225c1.688-0.803,3.203-1.754,4.711-2.664
				c5.937-3.775,10.72-8.19,16.327-13.508c-7.286,2.084-13.398,3.834-19.861,5.684c-6.229,1.662-12.537,3.491-20.188,3.736
				c-0.826-0.022-1.819-0.049-2.954-0.08c-0.562-0.059-1.153-0.154-1.778-0.231c-0.621-0.106-1.297-0.103-1.965-0.302
				c-1.343-0.352-2.829-0.602-4.329-1.232c-0.381-0.135-0.767-0.271-1.157-0.412l-0.592-0.209l-0.582-0.287
				c-0.785-0.379-1.59-0.77-2.41-1.166c-0.815-0.398-1.519-0.897-2.312-1.342c-0.751-0.509-1.491-1.074-2.255-1.625l-0.678-0.584
				c-0.529-0.477-1.096-0.882-1.605-1.414l-1.568-1.535l-1.517-1.67c-2.001-2.289-3.918-4.805-5.776-7.474
				c-3.725-5.366-7.201-11.262-11.261-17.209c-0.989-1.472-2.128-3.002-3.149-4.396c-0.9-1.217-1.85-2.605-2.799-4.012
				c-1.908-2.826-3.877-5.785-6.08-8.693l0,0c-2.069-2.717-4.33-5.438-7.16-7.967c-1.42-1.259-2.994-2.47-4.812-3.523
				c-1.811-1.05-3.896-1.947-6.222-2.398c-0.582-0.108-1.161-0.216-1.764-0.258l-0.447-0.039l-0.224-0.018l-0.112-0.009
				c-0.758,5.179,1.538-11.604-1.727,11.608l0.657,0.148c0.879,0.204,1.743,0.366,2.606,0.524c1.726,0.312,3.42,0.524,5.107,0.709
				c3.37,0.358,6.687,0.521,9.974,0.568c13.131,0.129,25.834-1.37,37.977-4.174c6.062-1.426,11.98-3.207,17.658-5.535
				c5.666-2.345,11.146-5.165,16.057-9.048c2.448-1.936,4.756-4.139,6.729-6.715c1.988-2.546,3.606-5.499,4.633-8.656
				c1.039-3.154,1.383-6.49,1.214-9.624c-0.039-0.786-0.146-1.551-0.224-2.32c-0.131-0.745-0.248-1.512-0.403-2.226
				c-0.175-0.692-0.349-1.38-0.521-2.065l-0.266-1.023l-0.348-1.009c-0.234-0.669-0.469-1.335-0.701-1.998
				c-0.273-0.653-0.575-1.296-0.865-1.937c-0.535-1.297-1.324-2.486-1.999-3.696c-0.387-0.581-0.796-1.145-1.194-1.709l-0.603-0.84
				l-0.667-0.785c-0.45-0.516-0.898-1.029-1.344-1.539c-0.485-0.469-0.971-0.934-1.45-1.397c-0.472-0.475-0.979-0.896-1.498-1.297
				c-0.515-0.406-1.021-0.819-1.537-1.204c-1.077-0.69-2.103-1.464-3.205-2.016c-0.544-0.294-1.084-0.586-1.62-0.875
				c-0.55-0.248-1.096-0.493-1.638-0.736c-1.079-0.513-2.179-0.859-3.249-1.247c-4.312-1.443-8.441-2.006-12.2-2.205
				c-3.767-0.199-7.179,0.049-10.218,0.429c-6.089,0.754-10.658,2.209-13.732,3.253c-1.533,0.547-2.699,0.987-3.472,1.326
				c-0.776,0.323-1.177,0.49-1.177,0.49s-0.285,0.105-0.817,0.361c-0.534,0.251-1.329,0.624-2.366,1.111
				c-2.043,1.051-5.048,2.621-8.611,5.178c-0.442,0.322-0.898,0.654-1.366,0.994c-0.453,0.365-0.918,0.739-1.394,1.122
				c-0.897,0.681-2.071,1.8-3.076,2.837c-1.949,2.09-3.605,4.335-5.318,6.756c-3.324,4.84-6.576,10.385-9.938,16.542
				c-6.673,12.319-13.712,27.057-20.788,43.372c-3.534,8.158-7.073,16.705-10.476,25.608c-1.697,4.457-3.365,8.992-4.923,13.692
				c-0.787,2.342-1.52,4.754-2.205,7.281l-0.386,1.547c-0.001-0.004,0.012-0.039-0.018,0.045l-0.139,0.363l-0.278,0.68
				c-0.179,0.414-0.376,0.83-0.482,1.002c-0.022,0.035-0.063,0.121-0.049,0.082c-0.021-0.016-0.021-0.021,0.229,0.15l0.532,0.385
				l0.519,0.408l0.422,0.301c0.529,0.381,1.074,0.987,1.365,1.254c0.082,0.092,0.158,0.188,0.229,0.293
				c0.071,0.101,0.141,0.23,0.182,0.263c0.094,0.112,0.165,0.254,0.202,0.414c0.03,0.058,0.048,0.104,0.04,0.181
				c-0.005-0.005,0.012-0.07,0.027-0.076c0.028-0.086,0.104-0.23,0.188-0.302c0.034-0.017,0.109-0.124,0.183-0.204
				c0.074-0.08,0.153-0.154,0.236-0.222c0.084-0.067,0.171-0.126,0.262-0.179c0.115-0.092,0.242-0.192,0.367-0.278
				c0.253-0.177,0.519-0.33,0.793-0.457c0.643-0.366,1.4-0.751,2.137-1.005c0.336-0.148,0.128-0.068,0.186-0.1l-0.006-0.019
				l-0.016-0.037l-0.059-0.19c-0.043-0.137-0.094-0.349-0.143-0.547c-0.198-0.867-0.375-1.959-0.523-3.065
				c-0.299-2.237-0.516-4.626-0.712-7.022c-0.387-4.812-0.686-9.724-0.998-14.641c-0.616-9.843-1.271-19.736-2.188-29.502
				c-0.92-9.768-2.08-19.414-3.714-28.792c-1.652-9.375-3.725-18.495-6.819-27.13c-1.56-4.312-3.375-8.507-5.673-12.48
				c-1.151-1.984-2.427-3.911-3.874-5.74c-0.729-0.913-1.49-1.803-2.307-2.657c-0.418-0.422-0.813-0.853-1.261-1.254l-0.843-0.777
				c-1.24-1.075-2.539-2.044-3.879-2.883c-1.361-0.814-2.73-1.53-4.121-2.059c-2.766-1.1-5.477-1.537-7.771-1.66
				c-2.301-0.106-4.23,0.063-5.708,0.312c-5.512,0.902-9.671,3.033-13.159,5.201c-3.461,2.23-6.25,4.657-8.716,7.188
				C7.444,19.943,3.788,25.45,0,32.193z"/>
		</g>
	</g>
</g>
</svg>
