<?xml version="1.0" encoding="utf-8"?>
<!-- Generator: Adobe Illustrator 16.0.0, SVG Export Plug-In . SVG Version: 6.00 Build 0)  -->
<!DOCTYPE svg PUBLIC "-//W3C//DTD SVG 1.1//EN" "http://www.w3.org/Graphics/SVG/1.1/DTD/svg11.dtd">
<svg version="1.1" xmlns="http://www.w3.org/2000/svg" xmlns:xlink="http://www.w3.org/1999/xlink" x="0px" y="0px" width="200px"
	 height="200px" viewBox="0 0 200 200" enable-background="new 0 0 200 200" xml:space="preserve">
<g id="Layer_1">
</g>
<g id="Layer_3">
	<g id="Layer_4">
		<ellipse fill="#D2B78C" cx="80.923" cy="26" rx="42.077" ry="42.5"/>
		<ellipse fill="#A8906C" cx="139.375" cy="28.75" rx="44.375" ry="45.25"/>
		<ellipse fill="#7F694B" cx="186.375" cy="28.75" rx="44.375" ry="45.25"/>
	</g>
	<g>
		<path d="M137.5,35.729L134,200.114l-106.25,4.943L-14,200V72V-6l61.577,2.272c2.5-9.5,14.298,14.228,16.298,17.228
			c7.5,12,8.062,26,13.562,38.5c-0.5-6,8.031-24.5,14.531-24.5c7.5,0,14.516,20.5,17.016,25.5c1.5-7.5,24.008-36,28.508-17.5"/>
	</g>
	<g>
		<g>
			<path fill="#492F22" d="M51.667-5.833c-17.529,1.507-23,20.608-21.932,35.608c0.537,7.543,2.972,14.387,7.722,20.274
				c6.173,7.652,14.448,13.471,21.285,20.499c7.318,7.521,12.057,16.063,8.322,26.541c-3.012,8.452-10.199,14.831-17.176,20.061
				c-13.418,10.058-29.95,17.591-38.933,32.425c-6.411,10.586-6.999,25.575,0.183,35.887c7.433,10.672,21.625,14.693,32.439,20.834
				c1.685,0.957,3.196-1.635,1.515-2.59c-8.297-4.712-17.376-8.082-25.154-13.679c-9.451-6.801-12.304-17.797-10.231-28.932
				c3.41-18.313,22.509-28.139,36.495-37.663c12.27-8.356,27.585-20.784,25.126-37.522c-1.29-8.775-8.699-15.985-14.816-21.757
				c-6.891-6.501-15.066-12.341-19.965-20.614C28.153,29.365,31.611-1.109,51.667-2.833C53.58-2.998,53.595-5.999,51.667-5.833
				L51.667-5.833z"/>
		</g>
	</g>
	<polygon fill="#492F22" points="40.686,0 16.75,-7 -9.333,0 -1,200 40.75,205 11,185.001 7.542,165 9.667,151.668 22.988,138.029 
		46.204,121.57 56,114.668 66.239,102.279 69.667,93.667 68.333,79.667 40.667,53 32.885,39.009 30.333,28.667 32,15.333 	"/>
</g>
<g id="Layer_2">
	<circle fill="#744F3A" cx="191.75" cy="138.029" r="116.75"/>
	<circle fill="#492F22" cx="216.75" cy="219.029" r="116.75"/>
	<g>
		<path fill="#744F3A" d="M6.095,71.347h19.894v3.562H10.025v8.841h14.286v3.561H10.025v9.128H26.48V100H6.095V71.347z"/>
		<path fill="#744F3A" d="M51.327,100l-5.69-9.005c-0.655,0.055-1.187,0.082-1.596,0.082h-7.286V100h-3.93V71.347h11.216
			c3.629,0,6.433,0.839,8.412,2.518c1.978,1.678,2.968,4.06,2.968,7.143c0,2.32-0.539,4.271-1.617,5.854
			c-1.079,1.583-2.627,2.729-4.646,3.438L55.829,100H51.327z M44.041,87.516c2.456,0,4.339-0.539,5.648-1.617
			c1.31-1.078,1.965-2.667,1.965-4.769c0-2.047-0.655-3.595-1.965-4.646c-1.31-1.05-3.192-1.576-5.648-1.576h-7.286v12.607H44.041z"
			/>
		<path fill="#744F3A" d="M82.538,73.025c2.306,1.283,4.127,3.036,5.465,5.26c1.336,2.224,2.005,4.673,2.005,7.347
			c0,2.675-0.669,5.137-2.005,7.389c-1.337,2.251-3.159,4.025-5.465,5.321c-2.306,1.296-4.837,1.944-7.593,1.944
			s-5.287-0.648-7.593-1.944c-2.307-1.296-4.128-3.07-5.465-5.321c-1.337-2.251-2.005-4.714-2.005-7.389
			c0-2.674,0.668-5.123,2.005-7.347c1.337-2.224,3.152-3.977,5.444-5.26c2.292-1.282,4.83-1.924,7.613-1.924
			C77.701,71.101,80.231,71.743,82.538,73.025z M69.439,76.095c-1.706,0.982-3.063,2.312-4.073,3.991
			c-1.01,1.678-1.515,3.527-1.515,5.546c0,2.02,0.505,3.875,1.515,5.567c1.009,1.692,2.367,3.036,4.073,4.032
			c1.705,0.996,3.554,1.494,5.546,1.494c1.992,0,3.827-0.498,5.506-1.494c1.678-0.996,3.015-2.34,4.011-4.032
			c0.996-1.691,1.494-3.547,1.494-5.567c0-2.019-0.499-3.868-1.494-5.546c-0.997-1.678-2.333-3.008-4.011-3.991
			c-1.679-0.982-3.514-1.474-5.506-1.474C72.993,74.622,71.144,75.113,69.439,76.095z"/>
		<path fill="#D2B78C" d="M116.041,71.347h3.889V100h-3.971L99.586,77.814V100h-3.93V71.347h3.971l16.414,22.227V71.347z"/>
		<path fill="#D2B78C" d="M147.969,86.001h3.479v10.52c-1.446,1.146-3.138,2.061-5.075,2.743c-1.938,0.683-3.862,1.023-5.771,1.023
			c-2.757,0-5.28-0.648-7.572-1.944c-2.293-1.296-4.101-3.07-5.424-5.321c-1.324-2.251-1.985-4.714-1.985-7.389
			c0-2.674,0.668-5.123,2.006-7.347c1.336-2.224,3.165-3.977,5.484-5.26c2.319-1.282,4.885-1.924,7.695-1.924
			c1.992,0,3.937,0.355,5.833,1.064c1.896,0.71,3.541,1.678,4.933,2.906l-2.251,2.865c-1.146-1.064-2.463-1.889-3.95-2.477
			c-1.487-0.586-3.009-0.88-4.564-0.88c-2.046,0-3.929,0.491-5.648,1.474c-1.719,0.982-3.077,2.32-4.072,4.011
			c-0.997,1.692-1.494,3.548-1.494,5.567c0,2.02,0.504,3.882,1.514,5.587c1.01,1.706,2.375,3.057,4.094,4.053
			s3.603,1.494,5.648,1.494c1.201,0,2.422-0.197,3.664-0.593c1.241-0.396,2.395-0.948,3.459-1.658V86.001z"/>
		<path fill="#D2B78C" d="M179.016,73.025c2.306,1.283,4.127,3.036,5.465,5.26c1.337,2.224,2.006,4.673,2.006,7.347
			c0,2.675-0.669,5.137-2.006,7.389c-1.338,2.251-3.159,4.025-5.465,5.321c-2.307,1.296-4.837,1.944-7.593,1.944
			c-2.757,0-5.288-0.648-7.594-1.944c-2.306-1.296-4.128-3.07-5.464-5.321c-1.338-2.251-2.006-4.714-2.006-7.389
			c0-2.674,0.668-5.123,2.006-7.347c1.336-2.224,3.151-3.977,5.443-5.26c2.293-1.282,4.83-1.924,7.614-1.924
			C174.179,71.101,176.709,71.743,179.016,73.025z M165.917,76.095c-1.706,0.982-3.063,2.312-4.073,3.991s-1.514,3.527-1.514,5.546
			c0,2.02,0.504,3.875,1.514,5.567c1.01,1.692,2.367,3.036,4.073,4.032c1.705,0.996,3.555,1.494,5.547,1.494
			c1.991,0,3.827-0.498,5.505-1.494c1.679-0.996,3.016-2.34,4.012-4.032c0.996-1.691,1.494-3.547,1.494-5.567
			c0-2.019-0.498-3.868-1.494-5.546s-2.333-3.008-4.012-3.991c-1.678-0.982-3.514-1.474-5.505-1.474
			C169.472,74.622,167.622,75.113,165.917,76.095z"/>
	</g>
</g>
<g id="Layer_5">
	
		<rect x="195.111" y="147.711" transform="matrix(0.4674 0.884 -0.884 0.4674 242.1254 -95.7115)" fill="#BF8B17" width="10.778" height="10.778"/>
	
		<rect x="155.111" y="194.711" transform="matrix(0.3815 0.9244 -0.9244 0.3815 284.2451 -24.594)" fill="#BF8B17" width="10.778" height="10.777"/>
	<polygon fill="#BF8B17" points="173.574,204.137 160.717,172.98 191.874,160.126 204.731,191.276 	"/>
	<rect x="6" y="105" fill="#7F5706" width="178" height="5"/>
	<rect x="8" y="108" fill="#CE9E4A" width="178" height="5"/>
</g>
</svg>
