<?xml version="1.0" encoding="utf-8"?>
<!-- Generator: Adobe Illustrator 16.0.0, SVG Export Plug-In . SVG Version: 6.00 Build 0)  -->
<!DOCTYPE svg PUBLIC "-//W3C//DTD SVG 1.1//EN" "http://www.w3.org/Graphics/SVG/1.1/DTD/svg11.dtd">
<svg version="1.1" xmlns="http://www.w3.org/2000/svg" xmlns:xlink="http://www.w3.org/1999/xlink" x="0px" y="0px" width="200px"
	 height="200px" viewBox="0 0 200 200" enable-background="new 0 0 200 200" xml:space="preserve">
<g id="Layer_1">
	<rect fill="#2C5CA2" width="200" height="200"/>
	<rect fill="#F4AE4B" width="200" height="22"/>
	<g>
		<path fill="#FFFFFF" d="M7.62,37.25h4.69v20.78H7.62V37.25z"/>
		<path fill="#FFFFFF" d="M29.677,58.031l-3.295-5.937h-0.445h-4.335v5.937h-4.69V37.25h9.025c2.711,0,4.809,0.628,6.293,1.885
			s2.227,3.033,2.227,5.329c0,1.603-0.332,2.974-0.994,4.111c-0.664,1.138-1.629,2.004-2.895,2.598l4.423,6.857H29.677z
			 M21.602,48.175h4.335c1.306,0,2.31-0.301,3.013-0.905c0.702-0.604,1.054-1.489,1.054-2.657c0-1.147-0.352-2.014-1.054-2.598
			c-0.703-0.583-1.707-0.876-3.013-0.876h-4.335V48.175z"/>
		<path fill="#FFFFFF" d="M53.752,38.319c1.702,0.93,3.043,2.211,4.022,3.844s1.47,3.449,1.47,5.447c0,2-0.49,3.82-1.47,5.462
			c-0.979,1.643-2.32,2.934-4.022,3.874s-3.592,1.41-5.67,1.41s-3.969-0.47-5.67-1.41c-1.702-0.94-3.043-2.227-4.022-3.859
			s-1.47-3.458-1.47-5.477c0-1.999,0.49-3.814,1.47-5.447s2.315-2.914,4.008-3.844c1.691-0.93,3.587-1.396,5.685-1.396
			C50.16,36.924,52.05,37.389,53.752,38.319z M44.936,41.896c-0.99,0.584-1.771,1.38-2.346,2.39s-0.86,2.118-0.86,3.325
			c0,1.228,0.291,2.345,0.875,3.354s1.366,1.811,2.346,2.405s2.043,0.891,3.191,0.891c1.147,0,2.201-0.292,3.161-0.876
			c0.96-0.583,1.722-1.385,2.286-2.404c0.563-1.019,0.846-2.142,0.846-3.37c0-1.207-0.282-2.315-0.846-3.325
			c-0.564-1.009-1.326-1.806-2.286-2.39c-0.96-0.583-2.014-0.876-3.161-0.876C46.993,41.021,45.925,41.313,44.936,41.896z"/>
		<path fill="#FFFFFF" d="M76.699,37.25h4.453v20.78h-4.275L66.813,44.672v13.359h-4.482V37.25h4.274l10.094,13.418V37.25z"/>
		<path fill="#FFFFFF" d="M22.106,74.195c1.663,0.88,2.954,2.107,3.874,3.681c0.921,1.574,1.381,3.37,1.381,5.388
			s-0.471,3.814-1.41,5.388c-0.94,1.573-2.252,2.801-3.934,3.681c-1.683,0.88-3.602,1.321-5.759,1.321H7.62v-20.78h8.816
			C18.555,72.874,20.444,73.314,22.106,74.195z M19.658,88.89c0.92-0.544,1.637-1.301,2.151-2.271
			c0.515-0.969,0.772-2.078,0.772-3.325c0-1.247-0.272-2.365-0.816-3.354c-0.545-0.99-1.287-1.756-2.227-2.301
			c-0.94-0.544-2.004-0.816-3.191-0.816h-4.037v12.884h4.245C17.703,89.706,18.737,89.434,19.658,88.89z"/>
		<path fill="#FFFFFF" d="M30.448,72.874h15.823v3.889H35.139v4.513h10.005v3.889H35.139v4.602h11.459v3.889H30.448V72.874z"/>
		<path fill="#FFFFFF" d="M50.278,72.874h14.933l-0.029,3.889H54.969v5.106h9.381v3.918h-9.381v7.867h-4.69V72.874z"/>
		<path fill="#FFFFFF" d="M67.941,72.874h4.69v20.78h-4.69V72.874z"/>
		<path fill="#FFFFFF" d="M89.775,77.372c-0.96-0.485-1.925-0.728-2.895-0.728c-1.168,0-2.236,0.287-3.206,0.861
			c-0.97,0.574-1.732,1.356-2.286,2.345c-0.554,0.99-0.831,2.088-0.831,3.295c0,1.208,0.277,2.311,0.831,3.31
			c0.554,1,1.316,1.791,2.286,2.375c0.97,0.584,2.038,0.876,3.206,0.876c0.93,0,1.875-0.223,2.835-0.668s1.815-1.043,2.568-1.796
			l2.761,2.998c-1.109,1.148-2.41,2.059-3.904,2.731s-2.993,1.009-4.497,1.009c-2.039,0-3.889-0.47-5.552-1.41
			c-1.662-0.94-2.969-2.231-3.918-3.874c-0.95-1.643-1.425-3.473-1.425-5.492c0-1.999,0.484-3.81,1.454-5.432
			s2.301-2.899,3.993-3.83c1.691-0.93,3.566-1.396,5.625-1.396c1.504,0,2.988,0.312,4.453,0.935c1.464,0.624,2.711,1.47,3.74,2.539
			l-2.73,3.354C91.571,78.524,90.735,77.856,89.775,77.372z"/>
		<path fill="#FFFFFF" d="M97.835,72.874h4.69v20.78h-4.69V72.874z"/>
		<path fill="#FFFFFF" d="M107.126,72.874h15.822v3.889h-11.132v4.513h10.004v3.889h-10.004v4.602h11.458v3.889h-16.148V72.874z"/>
		<path fill="#FFFFFF" d="M141.324,72.874h4.452v20.78h-4.274l-10.063-13.359v13.359h-4.482v-20.78h4.274l10.094,13.418V72.874z"/>
		<path fill="#FFFFFF" d="M162.891,77.372c-0.96-0.485-1.925-0.728-2.895-0.728c-1.168,0-2.236,0.287-3.206,0.861
			c-0.97,0.574-1.731,1.356-2.286,2.345c-0.554,0.99-0.831,2.088-0.831,3.295c0,1.208,0.277,2.311,0.831,3.31
			c0.555,1,1.316,1.791,2.286,2.375c0.97,0.584,2.038,0.876,3.206,0.876c0.931,0,1.875-0.223,2.835-0.668s1.815-1.043,2.568-1.796
			l2.761,2.998c-1.108,1.148-2.41,2.059-3.904,2.731s-2.993,1.009-4.497,1.009c-2.038,0-3.889-0.47-5.552-1.41
			c-1.662-0.94-2.968-2.231-3.918-3.874c-0.95-1.643-1.425-3.473-1.425-5.492c0-1.999,0.484-3.81,1.454-5.432
			s2.301-2.899,3.993-3.83s3.566-1.396,5.625-1.396c1.504,0,2.988,0.312,4.453,0.935c1.465,0.624,2.711,1.47,3.74,2.539l-2.73,3.354
			C164.687,78.524,163.851,77.856,162.891,77.372z"/>
		<path fill="#FFFFFF" d="M188.524,72.874l-7.57,14.071v6.709h-4.69v-6.59l-7.688-14.19h4.72l5.314,9.321l5.194-9.321H188.524z"/>
		<path fill="#FFFFFF" d="M22.106,109.818c1.663,0.881,2.954,2.107,3.874,3.682c0.921,1.572,1.381,3.369,1.381,5.389
			c0,2.018-0.471,3.814-1.41,5.387c-0.94,1.574-2.252,2.801-3.934,3.682c-1.683,0.881-3.602,1.32-5.759,1.32H7.62v-20.779h8.816
			C18.555,108.498,20.444,108.938,22.106,109.818z M19.658,124.514c0.92-0.545,1.637-1.301,2.151-2.271
			c0.515-0.969,0.772-2.078,0.772-3.324c0-1.248-0.272-2.365-0.816-3.355c-0.545-0.988-1.287-1.756-2.227-2.301
			c-0.94-0.543-2.004-0.816-3.191-0.816h-4.037v12.885h4.245C17.703,125.33,18.737,125.059,19.658,124.514z"/>
		<path fill="#FFFFFF" d="M45.232,129.277L43.6,125.24h-9.618l-1.633,4.037H27.51l9.024-20.779h4.839l8.876,20.779H45.232z
			 M35.525,121.471h6.561l-3.266-8.074L35.525,121.471z"/>
		<path fill="#FFFFFF" d="M68.417,108.498l-7.57,14.07v6.709h-4.69v-6.59l-7.688-14.189h4.72l5.314,9.32l5.195-9.32H68.417z"/>
	</g>
	<circle fill="#DD5E60" cx="97.667" cy="177.667" r="37"/>
	<circle fill="#1E3B6B" cx="137.667" cy="177.333" r="37"/>
</g>
<g id="Layer_2">
	<circle fill="#8CB84B" cx="179" cy="177.334" r="38.333"/>
</g>
</svg>
