<?xml version="1.0" encoding="utf-8"?>
<!-- Generator: Adobe Illustrator 16.0.0, SVG Export Plug-In . SVG Version: 6.00 Build 0)  -->
<!DOCTYPE svg PUBLIC "-//W3C//DTD SVG 1.1//EN" "http://www.w3.org/Graphics/SVG/1.1/DTD/svg11.dtd">
<svg version="1.1" xmlns="http://www.w3.org/2000/svg" xmlns:xlink="http://www.w3.org/1999/xlink" x="0px" y="0px" width="200px"
	 height="200px" viewBox="0 0 200 200" enable-background="new 0 0 200 200" xml:space="preserve">
<g id="Layer_3">
	<rect fill="#FFFFFF" width="200" height="200"/>
</g>
<g id="Layer_2">
	<rect x="100" y="8" fill="#AD9376" width="103" height="11"/>
	<rect x="130" y="29" fill="#AD9376" width="73" height="11"/>
	<rect x="166" y="50" fill="#AD9376" width="37" height="11"/>
	<rect y="160" fill="#1A5F64" width="72" height="11"/>
	<rect y="139" fill="#1A5F64" width="51" height="11"/>
	<rect y="118" fill="#1A5F64" width="26" height="11"/>
</g>
<g id="Layer_1">
	<g>
		<polygon opacity="0.25" fill="#195F64" points="-7.315,74.585 -17.118,-14 100.058,21.942 		"/>
		<polygon opacity="0.25" fill="#195F64" points="-34,18.493 73.645,2.337 37.885,114.884 		"/>
		<polygon opacity="0.25" fill="#195F64" points="-22.382,85.295 -1.325,4.879 71.83,82.391 		"/>
	</g>
	<g>
		<path opacity="0.42" fill="#E49273" enable-background="new    " d="M189.543,117.884l68.189,51.867L146.744,215.09"/>
		<path opacity="0.3" fill="#F2C8A2" enable-background="new    " d="M97.053,122.618l137.207,27.547l-81.605,76.637"/>
		<path opacity="0.39" fill="#F0D3B5" enable-background="new    " d="M64.046,151.979l141.457-1.813l-89.227,101.921"/>
	</g>
	<g>
		<path fill="#11433F" d="M7.659,72.86l3.46-0.022l2.764,8.531l2.742-8.531h3.33l-4.418,11.708h-3.438L7.659,72.86z"/>
		<path fill="#11433F" d="M27.898,84.546v-1.371c-0.392,0.494-0.9,0.871-1.523,1.132c-0.624,0.261-1.342,0.392-2.154,0.392
			c-1.233,0-2.213-0.337-2.938-1.012c-0.726-0.674-1.088-1.556-1.088-2.644c0-1.103,0.388-1.962,1.165-2.579
			c0.776-0.617,1.875-0.932,3.297-0.947h3.221v-0.218c0-0.624-0.207-1.106-0.621-1.447c-0.413-0.341-1.019-0.511-1.817-0.511
			c-1.088,0-2.249,0.341-3.482,1.023l-1.044-2.307c0.928-0.464,1.799-0.805,2.612-1.023c0.812-0.217,1.705-0.326,2.677-0.326
			c1.567,0,2.782,0.37,3.645,1.11c0.863,0.74,1.302,1.77,1.317,3.09l0.021,7.639H27.898z M26.963,81.804
			c0.507-0.333,0.812-0.754,0.914-1.262v-1.044h-2.633c-0.653,0-1.136,0.105-1.447,0.315c-0.312,0.21-0.468,0.548-0.468,1.012
			c0,0.45,0.164,0.809,0.49,1.078c0.327,0.269,0.772,0.402,1.338,0.402C25.853,82.305,26.455,82.138,26.963,81.804z"/>
		<path fill="#11433F" d="M44.601,73.926c0.776,0.812,1.165,1.901,1.165,3.264v7.356h-3.352V78.17c0-0.74-0.207-1.324-0.621-1.752
			c-0.413-0.428-0.976-0.642-1.687-0.642c-0.827,0.015-1.48,0.301-1.958,0.86c-0.479,0.559-0.718,1.273-0.718,2.144v5.767h-3.352
			V72.838h3.352v2.046c0.812-1.422,2.162-2.147,4.048-2.176C42.784,72.708,43.825,73.114,44.601,73.926z"/>
		<path fill="#11433F" d="M57.985,74.361c0.979,1.088,1.469,2.604,1.469,4.548c0,0.348-0.007,0.617-0.021,0.805h-8.401
			c0.188,0.74,0.551,1.317,1.088,1.73c0.537,0.414,1.182,0.62,1.937,0.62c0.551,0,1.081-0.105,1.588-0.315s0.965-0.519,1.371-0.925
			l1.763,1.785c-0.595,0.667-1.316,1.179-2.165,1.534c-0.849,0.356-1.795,0.533-2.84,0.533c-1.233,0-2.311-0.246-3.231-0.74
			c-0.922-0.493-1.632-1.189-2.133-2.089c-0.5-0.899-0.751-1.937-0.751-3.112c0-1.189,0.253-2.238,0.762-3.145
			c0.508-0.906,1.219-1.61,2.133-2.111s1.958-0.751,3.134-0.751C55.573,72.729,57.006,73.273,57.985,74.361z M56.298,77.734
			c-0.029-0.769-0.275-1.385-0.74-1.85s-1.081-0.696-1.85-0.696c-0.726,0-1.332,0.229-1.817,0.686
			c-0.486,0.457-0.794,1.077-0.925,1.86H56.298z"/>
		<path fill="#11433F" d="M67.136,75.438c-0.624-0.196-1.183-0.293-1.676-0.293c-0.406,0-0.733,0.073-0.979,0.217
			c-0.247,0.146-0.37,0.363-0.37,0.653c0,0.319,0.167,0.566,0.5,0.74c0.333,0.174,0.877,0.37,1.632,0.587
			c0.827,0.247,1.509,0.49,2.045,0.729c0.537,0.24,1.001,0.595,1.393,1.066c0.392,0.472,0.587,1.092,0.587,1.861
			c0,1.161-0.446,2.064-1.338,2.709c-0.892,0.646-2.035,0.968-3.428,0.968c-0.958,0-1.879-0.141-2.764-0.424
			c-0.885-0.283-1.654-0.686-2.307-1.208l1.088-2.264c0.595,0.465,1.258,0.824,1.991,1.078c0.732,0.254,1.425,0.381,2.078,0.381
			c0.45,0,0.809-0.076,1.078-0.229c0.268-0.152,0.402-0.381,0.402-0.686c0-0.334-0.17-0.595-0.511-0.784
			c-0.341-0.188-0.889-0.392-1.643-0.609c-0.798-0.232-1.462-0.464-1.991-0.696c-0.53-0.232-0.983-0.584-1.36-1.056
			c-0.377-0.471-0.566-1.084-0.566-1.839c0-1.161,0.436-2.06,1.306-2.699c0.871-0.638,1.973-0.958,3.308-0.958
			c0.798,0,1.596,0.113,2.394,0.337c0.798,0.225,1.523,0.548,2.176,0.968l-1.153,2.285C68.391,75.914,67.76,75.634,67.136,75.438z"
			/>
		<path fill="#11433F" d="M77.996,75.438c-0.624-0.196-1.183-0.293-1.676-0.293c-0.406,0-0.733,0.073-0.979,0.217
			c-0.247,0.146-0.37,0.363-0.37,0.653c0,0.319,0.167,0.566,0.5,0.74c0.333,0.174,0.877,0.37,1.632,0.587
			c0.827,0.247,1.509,0.49,2.045,0.729c0.537,0.24,1.001,0.595,1.393,1.066c0.392,0.472,0.587,1.092,0.587,1.861
			c0,1.161-0.446,2.064-1.338,2.709c-0.892,0.646-2.035,0.968-3.428,0.968c-0.958,0-1.879-0.141-2.764-0.424
			c-0.885-0.283-1.654-0.686-2.307-1.208l1.088-2.264c0.595,0.465,1.258,0.824,1.991,1.078c0.732,0.254,1.425,0.381,2.078,0.381
			c0.45,0,0.809-0.076,1.078-0.229c0.268-0.152,0.402-0.381,0.402-0.686c0-0.334-0.17-0.595-0.511-0.784
			c-0.341-0.188-0.889-0.392-1.643-0.609c-0.798-0.232-1.462-0.464-1.991-0.696c-0.53-0.232-0.983-0.584-1.36-1.056
			c-0.377-0.471-0.566-1.084-0.566-1.839c0-1.161,0.436-2.06,1.306-2.699c0.871-0.638,1.973-0.958,3.308-0.958
			c0.798,0,1.596,0.113,2.394,0.337c0.798,0.225,1.523,0.548,2.176,0.968l-1.153,2.285C79.251,75.914,78.62,75.634,77.996,75.438z"
			/>
		<path fill="#11433F" d="M91.935,73.469c0.95,0.493,1.687,1.189,2.209,2.089c0.522,0.9,0.783,1.944,0.783,3.134
			c0,1.175-0.261,2.216-0.783,3.123c-0.522,0.907-1.259,1.611-2.209,2.111c-0.951,0.5-2.042,0.75-3.275,0.75
			c-1.248,0-2.347-0.25-3.297-0.75s-1.687-1.204-2.208-2.111c-0.522-0.906-0.784-1.948-0.784-3.123c0-1.19,0.261-2.234,0.784-3.134
			c0.522-0.899,1.258-1.596,2.208-2.089s2.049-0.74,3.297-0.74C89.893,72.729,90.984,72.976,91.935,73.469z M86.538,76.407
			c-0.544,0.595-0.816,1.371-0.816,2.329s0.272,1.734,0.816,2.329s1.251,0.892,2.122,0.892c0.856,0,1.556-0.297,2.1-0.892
			s0.816-1.371,0.816-2.329s-0.272-1.734-0.816-2.329s-1.244-0.893-2.1-0.893C87.789,75.515,87.082,75.812,86.538,76.407z"/>
		<path fill="#11433F" d="M108.116,72.838v10.62c0,1.103-0.262,2.064-0.783,2.884c-0.523,0.819-1.256,1.451-2.199,1.894
			c-0.943,0.442-2.031,0.664-3.264,0.664c-0.959,0-1.869-0.138-2.732-0.414c-0.863-0.276-1.65-0.653-2.361-1.131l1.24-2.351
			c1.103,0.784,2.313,1.175,3.634,1.175c0.959,0,1.721-0.236,2.285-0.708c0.566-0.472,0.85-1.106,0.85-1.904V82.24
			c-0.393,0.551-0.885,0.972-1.48,1.262s-1.277,0.435-2.045,0.435c-1.002,0-1.891-0.236-2.667-0.708
			c-0.776-0.471-1.378-1.135-1.806-1.991c-0.428-0.856-0.642-1.842-0.642-2.959c0-1.103,0.214-2.071,0.642-2.905
			c0.428-0.834,1.03-1.483,1.806-1.948c0.776-0.464,1.665-0.696,2.667-0.696c0.754,0,1.428,0.149,2.023,0.446
			s1.096,0.715,1.502,1.251v-1.589H108.116z M104.024,80.553c0.508-0.558,0.762-1.287,0.762-2.187c0-0.899-0.254-1.632-0.762-2.198
			c-0.508-0.565-1.168-0.849-1.98-0.849s-1.473,0.283-1.98,0.849c-0.508,0.566-0.77,1.299-0.784,2.198
			c0.014,0.9,0.272,1.629,0.772,2.187c0.502,0.559,1.164,0.838,1.992,0.838C102.856,81.391,103.517,81.112,104.024,80.553z"/>
		<path fill="#11433F" d="M116.124,73.295c0.652-0.377,1.414-0.573,2.285-0.587v3.155c-0.116-0.014-0.291-0.021-0.522-0.021
			c-1.03,0-1.847,0.279-2.448,0.838c-0.603,0.559-0.903,1.302-0.903,2.23v5.637h-3.352V72.838h3.352v2.111
			C114.941,74.224,115.471,73.672,116.124,73.295z"/>
		<path fill="#11433F" d="M126.657,84.546v-1.371c-0.392,0.494-0.899,0.871-1.523,1.132s-1.342,0.392-2.154,0.392
			c-1.233,0-2.213-0.337-2.938-1.012c-0.726-0.674-1.088-1.556-1.088-2.644c0-1.103,0.388-1.962,1.164-2.579
			s1.875-0.932,3.298-0.947h3.221v-0.218c0-0.624-0.207-1.106-0.62-1.447c-0.414-0.341-1.02-0.511-1.817-0.511
			c-1.088,0-2.249,0.341-3.482,1.023l-1.044-2.307c0.928-0.464,1.799-0.805,2.611-1.023c0.812-0.217,1.704-0.326,2.677-0.326
			c1.566,0,2.782,0.37,3.646,1.11c0.862,0.74,1.302,1.77,1.316,3.09l0.021,7.639H126.657z M125.722,81.804
			c0.508-0.333,0.812-0.754,0.914-1.262v-1.044h-2.634c-0.652,0-1.135,0.105-1.447,0.315c-0.312,0.21-0.468,0.548-0.468,1.012
			c0,0.45,0.163,0.809,0.49,1.078c0.326,0.269,0.772,0.402,1.338,0.402C124.611,82.305,125.214,82.138,125.722,81.804z"/>
		<path fill="#11433F" d="M142.882,73.48c0.834,0.5,1.479,1.208,1.937,2.122c0.457,0.914,0.686,1.966,0.686,3.155
			c0,1.175-0.225,2.209-0.675,3.102c-0.449,0.892-1.085,1.585-1.904,2.078c-0.819,0.494-1.773,0.74-2.861,0.74
			c-0.812,0-1.534-0.156-2.166-0.468c-0.631-0.312-1.164-0.765-1.6-1.36v5.919h-3.351V72.838h3.351v1.719
			c0.421-0.595,0.947-1.048,1.578-1.36s1.339-0.468,2.122-0.468C141.086,72.729,142.047,72.979,142.882,73.48z M141.304,80.988
			c0.537-0.602,0.806-1.382,0.806-2.34c0-0.943-0.269-1.715-0.806-2.317s-1.233-0.903-2.089-0.903c-0.856,0-1.557,0.301-2.101,0.903
			s-0.816,1.375-0.816,2.317c0,0.972,0.272,1.756,0.816,2.351c0.544,0.595,1.244,0.892,2.101,0.892
			C140.07,81.891,140.767,81.59,141.304,80.988z"/>
		<path fill="#11433F" d="M158.376,73.926c0.775,0.812,1.164,1.901,1.164,3.264v7.356h-3.352V78.17c0-0.74-0.207-1.324-0.62-1.752
			c-0.413-0.428-0.976-0.642-1.687-0.642c-0.827,0.015-1.483,0.301-1.97,0.86s-0.729,1.273-0.729,2.144v5.767h-3.351V68.398h3.351
			v6.507c0.812-1.436,2.162-2.168,4.049-2.198C156.551,72.708,157.6,73.114,158.376,73.926z"/>
		<path fill="#11433F" d="M163.588,88.921c-0.624,0-1.189-0.091-1.697-0.272c-0.508-0.182-1.001-0.468-1.479-0.86l1.414-2.416
			c0.508,0.42,1.016,0.631,1.523,0.631c0.711,0,1.227-0.348,1.545-1.044l0.327-0.653l-4.854-11.469h3.46l3.069,8.052l2.764-8.052
			h3.352l-5.136,13.014C167.062,87.898,165.634,88.921,163.588,88.921z"/>
	</g>
	<g>
		<path fill="#11433F" d="M10.03,105.937c-0.534-0.317-0.949-0.758-1.245-1.323s-0.444-1.219-0.444-1.958
			c0-0.888,0.198-1.696,0.595-2.426c0.396-0.729,0.943-1.303,1.641-1.72c0.698-0.418,1.469-0.626,2.314-0.626
			c0.782,0,1.44,0.18,1.974,0.538c0.534,0.36,0.906,0.867,1.118,1.522l1.094-5.374h1.474l-2.346,11.763H14.73l0.286-1.363
			c-0.391,0.454-0.856,0.809-1.395,1.062c-0.539,0.253-1.121,0.38-1.744,0.38C11.18,106.412,10.564,106.254,10.03,105.937z
			 M13.97,104.724c0.486-0.301,0.872-0.71,1.157-1.229c0.286-0.518,0.428-1.088,0.428-1.712c0-0.782-0.23-1.411-0.69-1.887
			c-0.459-0.476-1.06-0.713-1.799-0.713c-0.592,0-1.133,0.153-1.625,0.459c-0.492,0.307-0.883,0.72-1.173,1.237
			c-0.291,0.518-0.436,1.083-0.436,1.696c0,0.771,0.235,1.397,0.706,1.878c0.47,0.481,1.081,0.722,1.831,0.722
			C12.95,105.176,13.483,105.025,13.97,104.724z"/>
		<path fill="#11433F" d="M26.565,98.882c0.65,0.655,0.975,1.533,0.975,2.632c0,0.359-0.042,0.761-0.127,1.205h-6.769
			c0.032,0.761,0.282,1.363,0.753,1.807c0.47,0.444,1.102,0.666,1.895,0.666c0.465,0,0.909-0.073,1.332-0.222
			c0.422-0.148,0.798-0.359,1.125-0.634l0.682,0.967c-0.856,0.739-1.918,1.109-3.187,1.109c-0.814,0-1.527-0.158-2.14-0.476
			s-1.086-0.766-1.419-1.348c-0.333-0.581-0.499-1.252-0.499-2.013c0-0.878,0.206-1.673,0.618-2.387
			c0.412-0.713,0.978-1.273,1.696-1.68c0.719-0.407,1.517-0.61,2.394-0.61C25.024,97.899,25.915,98.227,26.565,98.882z
			 M25.622,99.762c-0.402-0.428-0.978-0.642-1.728-0.642c-0.74,0-1.395,0.228-1.966,0.682c-0.57,0.454-0.957,1.046-1.157,1.775
			h5.438C26.219,100.795,26.023,100.189,25.622,99.762z"/>
		<path fill="#11433F" d="M36.782,97.946l-4.93,8.387h-1.538l-1.617-8.387h1.538l1.11,6.929l3.916-6.929H36.782z"/>
		<path fill="#11433F" d="M43.623,98.882c0.65,0.655,0.975,1.533,0.975,2.632c0,0.359-0.042,0.761-0.127,1.205h-6.769
			c0.032,0.761,0.282,1.363,0.753,1.807c0.47,0.444,1.102,0.666,1.895,0.666c0.465,0,0.909-0.073,1.332-0.222
			c0.422-0.148,0.798-0.359,1.125-0.634l0.682,0.967c-0.856,0.739-1.918,1.109-3.187,1.109c-0.814,0-1.527-0.158-2.14-0.476
			s-1.086-0.766-1.419-1.348c-0.333-0.581-0.499-1.252-0.499-2.013c0-0.878,0.206-1.673,0.618-2.387
			c0.412-0.713,0.978-1.273,1.696-1.68c0.719-0.407,1.517-0.61,2.394-0.61C42.083,97.899,42.973,98.227,43.623,98.882z
			 M42.68,99.762c-0.402-0.428-0.978-0.642-1.728-0.642c-0.74,0-1.395,0.228-1.966,0.682c-0.57,0.454-0.957,1.046-1.157,1.775h5.438
			C43.277,100.795,43.082,100.189,42.68,99.762z"/>
		<path fill="#11433F" d="M49.671,94.57l-2.346,11.763h-1.49l2.346-11.763H49.671z"/>
		<path fill="#11433F" d="M57.105,98.383c0.592,0.322,1.052,0.774,1.379,1.355c0.327,0.581,0.491,1.242,0.491,1.981
			c0,0.898-0.208,1.702-0.626,2.41c-0.418,0.708-0.988,1.26-1.712,1.656s-1.535,0.595-2.433,0.595c-0.782,0-1.467-0.161-2.053-0.483
			s-1.041-0.774-1.363-1.355c-0.323-0.581-0.483-1.247-0.483-1.998c0-0.888,0.206-1.686,0.618-2.394s0.98-1.261,1.704-1.656
			c0.724-0.396,1.535-0.595,2.434-0.595C55.832,97.899,56.514,98.061,57.105,98.383z M53.333,99.604
			c-0.476,0.28-0.851,0.671-1.125,1.173c-0.275,0.502-0.412,1.07-0.412,1.704c0,0.793,0.232,1.433,0.697,1.919
			c0.465,0.485,1.078,0.729,1.839,0.729c0.592,0,1.123-0.14,1.593-0.42s0.843-0.671,1.118-1.173s0.412-1.07,0.412-1.704
			c0-0.782-0.229-1.419-0.689-1.91c-0.46-0.492-1.07-0.737-1.831-0.737C54.342,99.184,53.808,99.323,53.333,99.604z"/>
		<path fill="#11433F" d="M68.131,98.351c0.534,0.312,0.949,0.753,1.245,1.324c0.295,0.57,0.444,1.226,0.444,1.966
			c0,0.877-0.198,1.681-0.595,2.409c-0.396,0.729-0.943,1.306-1.641,1.729s-1.469,0.634-2.314,0.634c-0.782,0-1.44-0.18-1.974-0.539
			c-0.534-0.359-0.907-0.866-1.118-1.521l-1.031,5.057h-1.474l2.283-11.462h1.475l-0.286,1.38c0.391-0.454,0.856-0.809,1.395-1.062
			s1.12-0.38,1.744-0.38C66.982,97.884,67.598,98.039,68.131,98.351z M64.192,99.556c-0.486,0.302-0.872,0.711-1.157,1.229
			c-0.286,0.519-0.428,1.089-0.428,1.712c0,0.783,0.23,1.411,0.69,1.887c0.459,0.476,1.059,0.714,1.799,0.714
			c0.592,0,1.133-0.153,1.625-0.46c0.491-0.307,0.882-0.719,1.173-1.236c0.291-0.518,0.436-1.083,0.436-1.696
			c0-0.771-0.235-1.397-0.706-1.879c-0.47-0.48-1.081-0.722-1.831-0.722C65.212,99.104,64.678,99.255,64.192,99.556z"/>
		<path fill="#11433F" d="M78.452,98.882c0.65,0.655,0.975,1.533,0.975,2.632c0,0.359-0.042,0.761-0.127,1.205h-6.769
			c0.032,0.761,0.282,1.363,0.753,1.807c0.47,0.444,1.102,0.666,1.895,0.666c0.465,0,0.909-0.073,1.332-0.222
			c0.422-0.148,0.798-0.359,1.125-0.634l0.682,0.967c-0.856,0.739-1.918,1.109-3.187,1.109c-0.814,0-1.527-0.158-2.14-0.476
			s-1.086-0.766-1.419-1.348c-0.333-0.581-0.499-1.252-0.499-2.013c0-0.878,0.206-1.673,0.618-2.387
			c0.412-0.713,0.978-1.273,1.696-1.68c0.719-0.407,1.517-0.61,2.394-0.61C76.911,97.899,77.802,98.227,78.452,98.882z
			 M77.508,99.762c-0.402-0.428-0.978-0.642-1.728-0.642c-0.74,0-1.395,0.228-1.966,0.682c-0.57,0.454-0.957,1.046-1.157,1.775
			h5.438C78.105,100.795,77.91,100.189,77.508,99.762z"/>
		<path fill="#11433F" d="M86.672,97.899l-0.19,1.427c-0.846-0.032-1.589,0.2-2.228,0.697c-0.64,0.497-1.081,1.157-1.324,1.981
			l-0.856,4.328h-1.49l1.665-8.387h1.49l-0.349,1.729C84.161,98.513,85.255,97.921,86.672,97.899z"/>
		<path fill="#11433F" d="M98.744,98.351c0.533,0.312,0.948,0.753,1.244,1.324c0.296,0.57,0.443,1.226,0.443,1.966
			c0,0.877-0.198,1.681-0.594,2.409c-0.396,0.729-0.943,1.306-1.642,1.729c-0.697,0.423-1.469,0.634-2.314,0.634
			c-0.782,0-1.439-0.18-1.974-0.539c-0.533-0.359-0.906-0.866-1.117-1.521l-1.03,5.057h-1.475l2.283-11.462h1.474l-0.285,1.38
			c0.391-0.454,0.856-0.809,1.396-1.062s1.12-0.38,1.743-0.38C97.595,97.884,98.21,98.039,98.744,98.351z M94.804,99.556
			c-0.485,0.302-0.871,0.711-1.157,1.229c-0.285,0.519-0.428,1.089-0.428,1.712c0,0.783,0.23,1.411,0.689,1.887
			c0.46,0.476,1.06,0.714,1.8,0.714c0.592,0,1.134-0.153,1.625-0.46s0.882-0.719,1.173-1.236s0.436-1.083,0.436-1.696
			c0-0.771-0.235-1.397-0.705-1.879c-0.471-0.48-1.081-0.722-1.831-0.722C95.824,99.104,95.29,99.255,94.804,99.556z"/>
		<path fill="#11433F" d="M108.485,98.383c0.592,0.322,1.051,0.774,1.379,1.355c0.327,0.581,0.491,1.242,0.491,1.981
			c0,0.898-0.209,1.702-0.626,2.41c-0.418,0.708-0.988,1.26-1.712,1.656c-0.725,0.396-1.535,0.595-2.434,0.595
			c-0.782,0-1.467-0.161-2.053-0.483c-0.587-0.322-1.042-0.774-1.364-1.355s-0.483-1.247-0.483-1.998
			c0-0.888,0.206-1.686,0.618-2.394c0.413-0.708,0.98-1.261,1.705-1.656c0.724-0.396,1.534-0.595,2.433-0.595
			C107.211,97.899,107.893,98.061,108.485,98.383z M104.712,99.604c-0.476,0.28-0.851,0.671-1.126,1.173
			c-0.274,0.502-0.412,1.07-0.412,1.704c0,0.793,0.232,1.433,0.698,1.919c0.465,0.485,1.077,0.729,1.839,0.729
			c0.592,0,1.122-0.14,1.593-0.42s0.843-0.671,1.118-1.173c0.274-0.502,0.412-1.07,0.412-1.704c0-0.782-0.23-1.419-0.689-1.91
			c-0.46-0.492-1.07-0.737-1.831-0.737C105.721,99.184,105.188,99.323,104.712,99.604z"/>
		<path fill="#11433F" d="M117.681,97.899l-0.19,1.427c-0.846-0.032-1.588,0.2-2.228,0.697s-1.081,1.157-1.324,1.981l-0.855,4.328
			h-1.49l1.664-8.387h1.49l-0.349,1.729C115.17,98.513,116.264,97.921,117.681,97.899z"/>
		<path fill="#11433F" d="M119.963,103.812c-0.043,0.18-0.063,0.354-0.063,0.523c0,0.253,0.061,0.433,0.182,0.539
			c0.122,0.105,0.31,0.158,0.563,0.158c0.412,0,0.888-0.143,1.427-0.428l0.27,1.188c-0.698,0.401-1.38,0.603-2.046,0.603
			c-0.57,0-1.027-0.15-1.371-0.452c-0.344-0.301-0.515-0.742-0.515-1.323c0-0.243,0.021-0.471,0.063-0.682l0.919-4.582h-1.188
			l0.206-1.125h1.204l0.444-2.252h1.475l-0.444,2.252h2.568l-0.206,1.125h-2.6L119.963,103.812z"/>
		<path fill="#11433F" d="M128.229,96.171c-0.322,0.254-0.531,0.598-0.626,1.03l-0.206,1.031h2.299l-0.206,1.125h-2.314
			l-1.396,6.976h-1.475l1.396-6.976h-1.094l0.222-1.125h1.109l0.19-0.983c0.116-0.603,0.341-1.112,0.674-1.529
			c0.333-0.418,0.722-0.729,1.165-0.936c0.444-0.206,0.904-0.31,1.38-0.31c0.56,0,1.046,0.133,1.458,0.396l-0.46,1.189
			c-0.147-0.085-0.316-0.151-0.507-0.198c-0.19-0.048-0.365-0.071-0.523-0.071C128.914,95.791,128.552,95.918,128.229,96.171z"/>
		<path fill="#11433F" d="M135.927,98.383c0.592,0.322,1.051,0.774,1.379,1.355c0.327,0.581,0.491,1.242,0.491,1.981
			c0,0.898-0.209,1.702-0.626,2.41c-0.418,0.708-0.988,1.26-1.712,1.656c-0.725,0.396-1.535,0.595-2.434,0.595
			c-0.782,0-1.467-0.161-2.053-0.483c-0.587-0.322-1.042-0.774-1.364-1.355s-0.483-1.247-0.483-1.998
			c0-0.888,0.206-1.686,0.618-2.394c0.413-0.708,0.98-1.261,1.705-1.656c0.724-0.396,1.534-0.595,2.433-0.595
			C134.652,97.899,135.334,98.061,135.927,98.383z M132.153,99.604c-0.476,0.28-0.851,0.671-1.126,1.173
			c-0.274,0.502-0.412,1.07-0.412,1.704c0,0.793,0.232,1.433,0.698,1.919c0.465,0.485,1.077,0.729,1.839,0.729
			c0.592,0,1.122-0.14,1.593-0.42s0.843-0.671,1.118-1.173c0.274-0.502,0.412-1.07,0.412-1.704c0-0.782-0.23-1.419-0.689-1.91
			c-0.46-0.492-1.07-0.737-1.831-0.737C133.162,99.184,132.629,99.323,132.153,99.604z"/>
		<path fill="#11433F" d="M142.949,94.57l-2.347,11.763h-1.49l2.347-11.763H142.949z"/>
		<path fill="#11433F" d="M146.69,97.946l-1.664,8.387h-1.475l1.664-8.387H146.69z M147.166,94.815
			c0.138,0.143,0.206,0.331,0.206,0.563c0,0.307-0.113,0.57-0.341,0.792c-0.228,0.223-0.489,0.333-0.784,0.333
			c-0.223,0-0.402-0.076-0.539-0.229c-0.138-0.153-0.206-0.341-0.206-0.562c0-0.307,0.11-0.568,0.333-0.785
			c0.222-0.217,0.48-0.325,0.776-0.325C146.844,94.602,147.028,94.673,147.166,94.815z"/>
		<path fill="#11433F" d="M154.729,98.383c0.592,0.322,1.051,0.774,1.379,1.355c0.327,0.581,0.491,1.242,0.491,1.981
			c0,0.898-0.209,1.702-0.626,2.41c-0.418,0.708-0.988,1.26-1.712,1.656c-0.725,0.396-1.535,0.595-2.434,0.595
			c-0.782,0-1.467-0.161-2.053-0.483c-0.587-0.322-1.042-0.774-1.364-1.355s-0.483-1.247-0.483-1.998
			c0-0.888,0.206-1.686,0.618-2.394c0.413-0.708,0.98-1.261,1.705-1.656c0.724-0.396,1.534-0.595,2.433-0.595
			C153.454,97.899,154.136,98.061,154.729,98.383z M150.955,99.604c-0.476,0.28-0.851,0.671-1.126,1.173
			c-0.274,0.502-0.412,1.07-0.412,1.704c0,0.793,0.232,1.433,0.698,1.919c0.465,0.485,1.077,0.729,1.839,0.729
			c0.592,0,1.122-0.14,1.593-0.42s0.843-0.671,1.118-1.173c0.274-0.502,0.412-1.07,0.412-1.704c0-0.782-0.23-1.419-0.689-1.91
			c-0.46-0.492-1.07-0.737-1.831-0.737C151.964,99.184,151.431,99.323,150.955,99.604z"/>
	</g>
</g>
</svg>
